<svg width="24" height="20" viewBox="0 0 24 20" fill="none" xmlns="http://www.w3.org/2000/svg">
<path fill-rule="evenodd" clip-rule="evenodd" d="M11.9255 5.20409L11.9779 5.20181V0.885737C11.9779 0.108069 12.9724 -0.290654 13.5728 0.246307L23.708 9.31053C24.0973 9.65877 24.0973 10.2412 23.708 10.5894L13.5728 19.6536C12.9724 20.1906 11.9779 19.7919 11.9779 19.0142V14.7317L11.926 14.7332C11.5922 14.7433 11.2699 14.7587 10.9585 14.7795L10.8155 14.7894L10.674 14.8001C10.3457 14.826 10.0297 14.8581 9.7251 14.8964L9.59527 14.9132C8.15324 15.1052 6.97057 15.4407 5.95343 15.9256L5.90182 15.9504C4.98988 16.3921 4.19274 16.953 3.36164 17.7408L3.27978 17.819C3.25245 17.8454 3.22508 17.8719 3.19767 17.8987L3.11527 17.98L3.03257 18.0627C3.00494 18.0906 2.97726 18.1187 2.94951 18.147L2.86609 18.2329L2.78225 18.3204L2.74017 18.3648L2.65566 18.4547C2.55679 18.5606 2.45693 18.6698 2.35585 18.7826L2.26891 18.8802L2.18134 18.9795L2.09311 19.0806L2.00419 19.1836L1.95946 19.2357L1.86944 19.3414L1.82415 19.3949L1.73296 19.5034L1.68707 19.5583C1.1347 20.2209 0 19.855 0 19.0142C0 15.1987 0.766503 12.0176 2.51729 9.62724C4.48712 6.93777 7.60563 5.40544 11.9255 5.20409ZM21.69 9.94994L13.8649 2.95159V6.0653C13.8649 6.5535 13.4424 6.94927 12.9214 6.94927C8.67995 6.94927 5.82398 8.23713 4.07317 10.6276C2.96329 12.1429 2.29887 14.0967 2.0284 16.4246L2.02019 16.4966L2.07625 16.4437C3.00437 15.5717 3.92097 14.9263 4.98196 14.4059L5.03523 14.3799C7.04903 13.4044 9.52583 12.9507 12.9214 12.9507C13.4424 12.9507 13.8649 13.3464 13.8649 13.8346V16.9483L21.69 9.94994Z" fill="#F50087"/>
</svg>
