<svg width="225" height="235" viewBox="0 0 225 235" fill="none" xmlns="http://www.w3.org/2000/svg">
<g clip-path="url(#clip0)">
<path d="M18.3 217.1H11.3V233.8H0V187.3H18.3C29.7 187.3 35.4 193.7 35.4 202.3C35.4 210 30.2 217.1 18.3 217.1ZM17.5 208.1C22 208.1 23.9 205.9 23.9 202.3C23.9 198.7 22 196.5 17.5 196.5H11.3V208.1H17.5V208.1Z" fill="white"/>
<path d="M41.3 196.9H52.6V233.8H41.3V196.9Z" fill="white"/>
<path d="M86.3 213.7C86.3 208.7 83.5 205.9 79.2 205.9C74.9 205.9 72.1 208.7 72.1 213.7V233.8H60.8V196.9H72.1V201.8C74.4 198.7 78.3 196.5 83.3 196.5C91.8 196.5 97.5 202.3 97.5 212.2V233.8H86.3V213.7Z" fill="white"/>
<path d="M121.7 196.3C131 196.3 137.5 201.4 139.4 210.2H127.4C126.5 207.6 124.6 206 121.5 206C117.5 206 114.7 209.2 114.7 215.3C114.7 221.5 117.5 224.6 121.5 224.6C124.6 224.6 126.4 223.1 127.4 220.4H139.4C137.5 228.9 130.9 234.3 121.7 234.3C110.8 234.3 103.2 227 103.2 215.3C103.2 203.7 110.8 196.3 121.7 196.3Z" fill="white"/>
<path d="M145.5 184.8H156.8V201.8C159.1 198.6 163.1 196.4 168.2 196.4C176.6 196.4 182.2 202.2 182.2 212.1V233.7H171V213.6C171 208.6 168.2 205.8 163.9 205.8C159.6 205.8 156.8 208.6 156.8 213.6V233.7H145.5V184.8V184.8Z" fill="white"/>
<path d="M206.5 234.3C195.6 234.3 187.8 227 187.8 215.3C187.8 203.6 195.5 196.3 206.5 196.3C217.3 196.3 224.9 203.4 224.9 214.7C224.9 215.8 224.8 216.9 224.7 218H199.1C199.5 222.8 202.5 225.1 206.1 225.1C209.3 225.1 211.1 223.5 212 221.5H224C222.2 228.8 215.7 234.3 206.5 234.3ZM199.1 211.8H213.3C213.3 207.8 210.1 205.4 206.4 205.4C202.6 205.4 199.8 207.7 199.1 211.8Z" fill="white"/>
<path d="M40.2 186.9C40.2 183.5 42.9 180.7 46.9 180.7C50.9 180.7 53.6 183.4 53.6 186.9C53.6 190.3 50.9 193 46.9 193C42.9 193 40.2 190.3 40.2 186.9Z" fill="#DEB82C"/>
<path d="M147.6 127C145.5 114.4 145.8 101.6 148.4 89.1C149.6 83.3 149.1 77.4 147.3 72.1C147.6 71.7 147.9 71.2 148.1 70.7L157.4 48.5C163.9 48 169.7 43.9 172.2 37.8C175.9 28.9 171.7 18.6 162.8 14.9C161.9 14.5 160.9 14.3 159.9 14C158.2 8.9 154.4 4.5 149.1 2.2C143.7 -2.38419e-07 137.9 0.3 133.1 2.7C132.2 2.1 131.3 1.6 130.4 1.2C121.5 -2.5 111.2 1.7 107.4 10.5C104.8 16.6 106 23.6 110.3 28.6L101 51C100.4 52.4 100.3 53.8 100.7 55.3C94.7 58.9 89.9 64.4 87.2 71.4C85.8 74.6 83.6 83.3 75.2 94.7C74.3 95.9 74.6 97.6 75.8 98.5C77 99.4 78.7 99.1 79.6 97.9C88.6 85.8 90.9 76.5 92.3 73.3C94.6 67.2 98.9 62.4 104.3 59.5C104.4 59.5 104.4 59.6 104.5 59.6L139.6 74.3C140.5 74.7 141.5 74.9 142.5 74.8C143.8 79 144.1 83.5 143.2 88.1C140.5 101.2 140.2 114.7 142.4 127.9C143.3 133.8 142.9 139.9 141.1 145.6C135.1 165.6 114.9 177.8 94.3 173.7C72.3 169.3 58.1 148 62.4 126C62.7 124.8 63 123.5 63.3 122.3C63.9 120.2 64.8 118.1 65.7 116C65.8 115.9 65.8 115.7 65.9 115.6C66.3 114.4 65.7 113 64.5 112.4C63.2 111.7 61.5 112.3 60.9 113.6C59.2 117.2 57.9 120.9 57.1 124.8C52.8 146.9 65.1 168.9 86.1 176.9C93.4 179.6 101.3 180.4 109 179.3C134.2 175.5 151.4 152.1 147.6 127ZM143.5 67.5C142.9 68.9 141.2 69.4 139.6 68.8L107.3 55.3C106.5 55 105.9 54.4 105.6 53.7C105.3 53 105.2 52.3 105.5 51.6L107.4 47L145.4 62.9L143.5 67.5ZM154.2 43.7C154 43.7 153.8 43.8 153.6 43.9C153.4 44 153.3 44.2 153.2 44.3C153.2 44.4 153.1 44.4 153.1 44.5L147.7 57.5L110.6 42L116 29.1C116 29 116.1 29 116.1 28.9C116.2 28.7 116.2 28.5 116.1 28.3C116.1 28.1 116 27.9 115.9 27.8C115.9 27.7 115.8 27.7 115.7 27.6C112.1 23.9 111.1 18.4 113.1 13.7C115.8 7.2 123.4 4.1 130 6.8C130.3 6.9 130.5 7.1 130.8 7.2C128.5 9 126.6 11.3 125.4 14.2C125.1 14.9 125.4 15.8 126.2 16.1C126.9 16.4 127.8 16.1 128.1 15.3C131.1 8 139.6 4.6 146.9 7.7C154.2 10.8 157.7 19.2 154.6 26.4C154.3 27.1 154.6 28 155.4 28.3C156.1 28.6 157 28.3 157.3 27.5C158.5 24.6 158.8 21.6 158.5 18.7C158.8 18.8 159.1 18.9 159.3 19C165.9 21.8 169 29.3 166.3 35.9C164.3 40.6 159.8 43.7 154.6 43.8C154.4 43.7 154.3 43.7 154.2 43.7Z" fill="white"/>
<path d="M67.7 108C68.8 109 70.5 108.8 71.5 107.7C71.9 107.2 72.3 106.8 72.7 106.4C73.7 105.3 73.7 103.6 72.7 102.6C71.6 101.6 69.9 101.6 68.9 102.7L68.8 102.8C68.3 103.3 67.9 103.8 67.4 104.3C66.4 105.3 66.6 107 67.7 108ZM94 162.1C79.9 157.9 72.2 141.8 76.9 126.3C81.5 110.8 96.8 101.6 110.8 105.8C124.9 110 132.6 126.1 127.9 141.6C123.2 157.1 108.1 166.3 94 162.1ZM95.6 156.9C106.8 160.3 119 152.7 122.8 140C126.6 127.4 120.5 114.3 109.3 111C98.1 107.6 85.9 115.2 82.1 127.9C78.3 140.5 84.4 153.6 95.6 156.9ZM110 118.1C110.4 116.7 109.6 115.2 108.2 114.7C99 112 89 118.4 85.8 129C85.4 130.4 86.2 131.9 87.6 132.4C89 132.8 90.5 132 91 130.6C93.3 122.8 100.4 118.1 106.7 120C108.1 120.3 109.6 119.5 110 118.1Z" fill="white"/>
<path d="M121.4 26.9C121.7 26.1 121.4 25.2 120.5 24.8C119.7 24.5 118.8 24.8 118.4 25.6C116.8 29.5 118.8 36.5 119.1 37.3C119.2 37.8 119.6 38.1 120 38.3C120.3 38.4 120.7 38.5 121.1 38.4C121.9 38.1 122.4 37.3 122.2 36.4C121.4 33.9 120.5 29 121.4 26.9Z" fill="white"/>
<path d="M153 38.4C152.2 38.1 151.3 38.4 150.9 39.2C150 41.3 145.9 44.1 143.5 45.4C142.7 45.8 142.4 46.8 142.8 47.5C143 47.8 143.3 48.1 143.6 48.2C144 48.4 144.5 48.4 145 48.1C145.7 47.7 152.2 44.2 153.8 40.4C154.2 39.7 153.8 38.7 153 38.4Z" fill="white"/>
<path d="M136.8 31.6C136 31.3 135.1 31.6 134.7 32.4L131 41.2C130.7 42 131 42.9 131.9 43.3C132.7 43.6 133.6 43.3 134 42.5L137.7 33.7C138 32.9 137.6 32 136.8 31.6Z" fill="white"/>
</g>
<defs>
<clipPath id="clip0">
<rect width="224.9" height="234.3" fill="white"/>
</clipPath>
</defs>
</svg>
