<svg width="203" height="52" viewBox="0 0 203 52" fill="none" xmlns="http://www.w3.org/2000/svg">
<g clip-path="url(#clip0)">
<path d="M65.648 36.3425H61.5712V46.0943H55.0063V18.9284H65.648C72.2428 18.9284 75.5402 22.6837 75.5402 27.6808C75.5402 32.1631 72.5125 36.3425 65.648 36.3425ZM65.1683 31.0728C67.7763 31.0728 68.8854 29.7705 68.8854 27.6506C68.8854 25.5609 67.7763 24.2283 65.1683 24.2283H61.6011V31.0425H65.1683V31.0728Z" fill="#BD3561"/>
<path d="M78.9575 24.5009H85.5223V46.1246H78.9575V24.5009Z" fill="#BD3561"/>
<path d="M105.037 34.3739C105.037 31.4362 103.418 29.8008 100.93 29.8008C98.4419 29.8008 96.8231 31.4362 96.8231 34.3739V46.1246H90.2583V24.5009H96.8231V27.378C98.1121 25.5609 100.42 24.2889 103.298 24.2889C108.244 24.2889 111.542 27.7111 111.542 33.4956V46.1246H105.037V34.3739V34.3739Z" fill="#BD3561"/>
<path d="M125.541 24.198C130.906 24.198 134.713 27.166 135.823 32.3448H128.838C128.298 30.8305 127.219 29.8614 125.421 29.8614C123.083 29.8614 121.464 31.7088 121.464 35.3127C121.464 38.9167 123.083 40.7641 125.421 40.7641C127.219 40.7641 128.268 39.8858 128.838 38.2807H135.823C134.713 43.2778 130.906 46.4275 125.541 46.4275C119.246 46.4275 114.809 42.1572 114.809 35.3127C114.809 28.4985 119.276 24.198 125.541 24.198Z" fill="#BD3561"/>
<path d="M139.33 17.4444H145.895V27.4083C147.184 25.5608 149.552 24.2586 152.489 24.2586C157.346 24.2586 160.613 27.6808 160.613 33.4653V46.0943H154.078V34.3436C154.078 31.4059 152.459 29.7705 149.971 29.7705C147.483 29.7705 145.865 31.4059 145.865 34.3436V46.0943H139.3V17.4444H139.33Z" fill="#BD3561"/>
<path d="M174.672 46.4275C168.377 46.4275 163.851 42.1572 163.851 35.3127C163.851 28.4683 168.287 24.198 174.672 24.198C180.907 24.198 185.344 28.3774 185.344 34.9796C185.344 35.5853 185.314 36.2516 185.224 36.9179H170.385C170.625 39.7344 172.334 41.067 174.462 41.067C176.291 41.067 177.34 40.1281 177.88 38.9773H184.864C183.785 43.1567 180.008 46.4275 174.672 46.4275ZM170.415 33.2231H178.629C178.629 30.8608 176.8 29.498 174.612 29.498C172.454 29.498 170.805 30.8002 170.415 33.2231Z" fill="#BD3561"/>
<path d="M78.3579 18.6861C78.3579 16.657 79.9167 15.0821 82.2548 15.0821C84.563 15.0821 86.1218 16.657 86.1218 18.6861C86.1218 20.6546 84.563 22.2598 82.2548 22.2598C79.9167 22.2598 78.3579 20.6546 78.3579 18.6861Z" fill="#DEB82C"/>
<path d="M43.8852 34.5556C43.3157 31.1334 43.4056 27.6505 44.0951 24.2283C44.4248 22.6535 44.3049 21.0483 43.7953 19.5946C43.8852 19.4735 43.9452 19.3524 44.0051 19.2009L46.4932 13.1741C48.2618 13.053 49.7906 11.9324 50.48 10.2667C51.4693 7.84391 50.3302 5.05765 47.932 4.02795C47.6922 3.93709 47.4225 3.84624 47.1527 3.78567C46.703 2.39254 45.6838 1.18112 44.245 0.575415C42.8061 -0.0302929 41.2473 0.0605633 39.9284 0.726842C39.6885 0.575415 39.4487 0.423988 39.2089 0.333132C36.8108 -0.696571 34.023 0.454273 33.0338 2.8771C32.3443 4.5428 32.6441 6.42049 33.8132 7.78334L31.2952 13.8101C31.1453 14.1736 31.1153 14.5975 31.2352 14.961C29.6465 15.9301 28.3275 17.4141 27.6081 19.3221C27.2184 20.2003 26.6488 22.5626 24.3706 25.6517C24.1308 25.9849 24.1908 26.4391 24.5205 26.6814C24.8502 26.9237 25.2999 26.8631 25.5397 26.53C27.9678 23.3197 28.6273 20.7758 28.987 19.8975C29.6165 18.2318 30.7856 16.9295 32.2244 16.1421C32.2544 16.1421 32.2544 16.1421 32.2844 16.1724L41.7269 20.1701C41.9667 20.2912 42.2365 20.3215 42.5063 20.2912C42.866 21.442 42.926 22.6837 42.6862 23.9254C41.9667 27.4991 41.8768 31.1637 42.4763 34.7676C42.7162 36.3727 42.5963 38.0081 42.1466 39.583C40.5279 45.0344 35.0722 48.3355 29.5565 47.2452C23.6512 46.0641 19.8142 40.2493 20.9833 34.283C21.0432 33.9499 21.1332 33.6168 21.2231 33.2836C21.403 32.7082 21.6128 32.1328 21.8826 31.5876C21.9126 31.5574 21.9126 31.5271 21.9126 31.4665C22.0025 31.1334 21.8526 30.7699 21.5229 30.5882C21.1631 30.4065 20.7135 30.5579 20.5636 30.9214C20.084 31.8905 19.7543 32.9202 19.5444 33.9802C18.3753 40.007 21.6727 45.9732 27.3683 48.1538C29.3467 48.8806 31.445 49.1229 33.5434 48.7897C40.2581 47.76 44.9044 41.3698 43.8852 34.5556ZM42.7761 18.3529C42.6262 18.7164 42.1466 18.8678 41.7269 18.6861L33.0038 14.9913C32.794 14.9004 32.6441 14.749 32.5542 14.5673C32.4642 14.3855 32.4642 14.1736 32.5242 13.9918L33.0338 12.7199L43.2557 17.0507L42.7761 18.3529ZM45.6538 11.9021C45.5939 11.9021 45.5339 11.9324 45.504 11.9627C45.444 11.993 45.414 12.0233 45.3841 12.0839C45.3841 12.1141 45.3541 12.1141 45.3541 12.1444L43.8852 15.6575L33.9031 11.4479L35.3719 7.93476C35.3719 7.90448 35.4019 7.90448 35.4019 7.87419C35.4319 7.81362 35.4319 7.75305 35.4019 7.69248C35.4019 7.63191 35.3719 7.60162 35.342 7.54105C35.342 7.51077 35.312 7.51077 35.312 7.48048C34.3527 6.48106 34.083 4.99708 34.6225 3.69481C35.3719 1.90797 37.4103 1.05998 39.1789 1.81712C39.2389 1.8474 39.3288 1.87769 39.3888 1.90797C38.7593 2.39254 38.2497 3.02853 37.9199 3.81595C37.83 4.02795 37.9199 4.23995 38.1298 4.3308C38.3396 4.42166 38.5494 4.3308 38.6394 4.1188C39.4487 2.15025 41.7269 1.21141 43.7054 2.02911C45.6838 2.84682 46.6131 5.14851 45.7737 7.11706C45.6838 7.32905 45.7737 7.54105 45.9836 7.63191C46.1934 7.72277 46.4033 7.63191 46.4932 7.41991C46.8229 6.63249 46.9128 5.81479 46.8229 5.02737C46.8829 5.05765 46.9728 5.08794 47.0328 5.11822C48.8014 5.87536 49.6407 7.93476 48.8913 9.69131C48.3517 10.9633 47.1227 11.8113 45.7438 11.8416C45.7138 11.8719 45.6838 11.8719 45.6538 11.9021Z" fill="#BD3561"/>
<path d="M22.3621 29.3768C22.6618 29.6494 23.1415 29.5888 23.3813 29.286C23.5012 29.1648 23.5911 29.0437 23.711 28.9225C23.9808 28.6197 23.9808 28.1654 23.711 27.8928C23.4112 27.6203 22.9616 27.6203 22.6918 27.8928L22.6618 27.9231C22.5419 28.0443 22.422 28.1957 22.3021 28.3471C22.0323 28.65 22.0623 29.1042 22.3621 29.3768ZM29.4665 44.0955C25.6895 42.9447 23.6211 38.5836 24.8501 34.3739C26.1091 30.1642 30.1859 27.6505 33.9929 28.8014C37.7699 29.9522 39.8383 34.3133 38.6093 38.523C37.3503 42.7327 33.2435 45.2463 29.4665 44.0955ZM29.8861 42.6721C32.9138 43.5806 36.1812 41.5212 37.2004 38.099C38.2196 34.6465 36.6009 31.1031 33.5732 30.1945C30.5456 29.286 27.2782 31.3454 26.259 34.7676C25.2098 38.2201 26.8585 41.7635 29.8861 42.6721ZM33.7531 32.1328C33.873 31.7391 33.6632 31.3454 33.2735 31.2242C30.8154 30.4671 28.0876 32.2236 27.2482 35.1007C27.1283 35.4945 27.3382 35.8882 27.7278 36.0093C28.1175 36.1304 28.5072 35.9184 28.6271 35.5247C29.2566 33.4048 31.1452 32.1328 32.8538 32.6476C33.2435 32.7385 33.6332 32.4962 33.7531 32.1328Z" fill="#BD3561"/>
<path d="M36.8107 7.32904C36.9006 7.11704 36.8107 6.84447 36.5708 6.75361C36.331 6.66276 36.0912 6.75362 36.0013 6.9959C35.5816 8.05589 36.1212 9.96387 36.1812 10.1759C36.2111 10.297 36.3011 10.3879 36.421 10.4484C36.5109 10.4787 36.6008 10.4787 36.7207 10.4787C36.9605 10.4181 37.0804 10.1759 37.0205 9.93358C36.8406 9.23702 36.6008 7.90446 36.8107 7.32904Z" fill="#B1365C"/>
<path d="M45.324 10.4484C45.1142 10.3576 44.8444 10.4484 44.7545 10.6907C44.5147 11.2661 43.4055 12.0233 42.776 12.3564C42.5662 12.4776 42.4763 12.7198 42.5962 12.9318C42.6561 13.0227 42.7161 13.0833 42.806 13.1136C42.9259 13.1741 43.0458 13.1741 43.1657 13.0833C43.3756 12.9924 45.1142 12.0233 45.5339 10.9633C45.6538 10.7816 45.5339 10.5393 45.324 10.4484Z" fill="#B1365C"/>
<path d="M40.9475 8.60103C40.7376 8.51017 40.4679 8.60103 40.3779 8.84331L39.3887 11.2359C39.2988 11.4479 39.3887 11.7204 39.6285 11.8113C39.8383 11.9021 40.1081 11.8113 40.1981 11.569L41.1873 9.17645C41.2772 8.93417 41.1873 8.69188 40.9475 8.60103Z" fill="#B1365C"/>
<path d="M195.206 28.4077C194.876 29.1951 194.337 29.922 193.647 30.4974C193.527 30.6185 193.348 30.7397 193.198 30.8608C192.838 31.1031 192.448 31.3151 192.059 31.4968C192.868 31.4362 193.617 31.2848 194.307 31.0122C195.026 30.7699 195.656 30.4368 196.195 30.0128C196.645 29.6797 197.005 29.3162 197.304 28.8923C197.544 28.5591 197.724 28.1957 197.874 27.802C198.084 27.2568 198.204 26.6511 198.234 26.0454V25.9546C198.234 25.7123 198.204 25.47 198.144 25.2277C197.784 24.0769 196.675 23.138 195.566 23.138H195.506C193.707 23.1683 192.868 24.5614 192.838 25.5003C192.838 26.4694 193.228 27.166 193.977 27.5597C194.277 27.7111 194.607 27.8323 194.966 27.8928L195.116 27.9231C195.176 27.9534 195.236 27.9837 195.296 28.0443C195.326 28.1048 195.326 28.1957 195.296 28.2563L195.206 28.4077Z" fill="#7089BF"/>
<path d="M195.386 41.0973C196.495 41.0973 197.634 40.219 197.994 39.0681C198.084 38.8259 198.114 38.5836 198.114 38.3413V38.2504C198.084 37.6447 197.994 37.0693 197.784 36.4939C197.634 36.1002 197.454 35.7368 197.244 35.4036C196.945 34.9796 196.585 34.5859 196.165 34.2528C195.626 33.8288 194.996 33.4956 194.307 33.2231C193.617 32.9808 192.868 32.7991 192.059 32.7082C192.448 32.8899 192.838 33.1019 193.198 33.3442C193.378 33.4654 193.527 33.5865 193.647 33.7076C194.337 34.2831 194.846 35.0402 195.176 35.8276L195.236 35.9488C195.266 36.0093 195.266 36.1002 195.236 36.1608C195.206 36.2213 195.146 36.2516 195.056 36.2819L194.906 36.3122C194.547 36.3727 194.217 36.4636 193.917 36.6453C193.168 37.039 192.778 37.7356 192.748 38.6744C192.748 39.6133 193.557 41.0367 195.356 41.0973H195.386Z" fill="#7089BF"/>
<path d="M198.803 25.1671C198.863 25.4397 198.893 25.7123 198.893 25.9849V26.106C198.863 26.8026 198.713 27.4385 198.503 28.0745C198.323 28.5288 198.114 28.9528 197.844 29.3162C197.514 29.8008 197.094 30.2248 196.585 30.6185C195.985 31.0728 195.296 31.4665 194.516 31.7088C194.426 31.7391 194.337 31.7694 194.247 31.7996L197.004 31.8299H197.064C197.364 31.8299 197.664 31.7996 197.964 31.7391C198.533 31.6179 199.073 31.3756 199.552 31.0425C200.032 30.6791 200.482 30.2248 200.871 29.6494C200.961 29.498 201.051 29.3162 201.111 29.1345C201.231 28.8317 201.291 28.4683 201.291 28.1048C201.291 27.1054 200.871 26.1666 200.212 25.7123C199.762 25.3186 199.283 25.1671 198.803 25.1671Z" fill="#162361"/>
<path d="M200.811 34.7373C200.452 34.1619 200.002 33.7076 199.522 33.3139C199.043 32.9505 198.533 32.7082 197.964 32.5871C197.694 32.5265 197.394 32.4659 197.094 32.4659H196.944L194.247 32.4357C194.337 32.4659 194.426 32.4962 194.486 32.5265C195.236 32.7991 195.955 33.1928 196.525 33.6471C197.004 34.0408 197.424 34.4648 197.754 34.9493C198.024 35.3128 198.233 35.767 198.383 36.191C198.593 36.827 198.743 37.463 198.743 38.1596V38.2807C198.743 38.5533 198.713 38.8259 198.623 39.0984C198.653 39.0984 198.683 39.0984 198.683 39.0984C199.133 39.0984 199.612 38.947 200.032 38.6744C200.691 38.2202 201.141 37.3116 201.141 36.2819C201.141 35.9185 201.081 35.555 200.961 35.2219C200.991 35.0705 200.901 34.9191 200.811 34.7373Z" fill="#162361"/>
<path d="M199.943 31.5574C199.583 31.7996 199.223 32.0116 198.833 32.1631C199.223 32.3145 199.583 32.5265 199.943 32.7991C200.512 33.2231 200.992 33.7379 201.411 34.4042C201.531 34.6162 201.651 34.8282 201.741 35.0705C201.741 35.1008 201.741 35.131 201.771 35.131C202.521 34.5556 203.03 33.4653 203.06 32.2539C203.03 31.7694 202.97 31.3151 202.85 30.8305C202.64 30.1945 202.281 29.6191 201.831 29.2557C201.831 29.286 201.801 29.3162 201.801 29.3465C201.711 29.5888 201.591 29.8008 201.471 30.0128C200.992 30.6185 200.482 31.1334 199.943 31.5574Z" fill="#7089BF"/>
<path d="M190.14 28.1351C190.14 28.8923 190.74 29.498 191.489 29.498C192.238 29.498 192.838 28.8923 192.838 28.1351C192.838 27.378 192.238 26.7723 191.489 26.7723C190.74 26.7723 190.14 27.378 190.14 28.1351Z" fill="#DEB82C"/>
<path d="M191.519 37.3419C192.268 37.3419 192.868 36.7362 192.868 35.979C192.868 35.2219 192.268 34.6162 191.519 34.6162C190.77 34.6162 190.17 35.2219 190.17 35.979C190.14 36.7362 190.74 37.3419 191.519 37.3419Z" fill="#DEB82C"/>
<path d="M7.79373 27.9534C8.12347 28.7408 8.66304 29.4677 9.3525 30.0431C9.47241 30.1642 9.65226 30.2854 9.80215 30.4065C10.1619 30.6488 10.5516 30.8608 10.9412 31.0425C10.1319 30.9819 9.38248 30.8305 8.69302 30.5579C7.97359 30.3157 7.34408 29.9825 6.80451 29.5585C6.35486 29.2254 5.99514 28.862 5.69538 28.438C5.45557 28.1048 5.27571 27.7414 5.12583 27.3477C4.916 26.8026 4.79609 26.1968 4.76611 25.5911V25.5003C4.76611 25.258 4.79609 25.0157 4.85604 24.7734C5.21576 23.6226 6.32488 22.6837 7.43401 22.6837H7.49396C9.29255 22.714 10.1319 24.1072 10.1619 25.046C10.1619 26.0151 9.77217 26.7117 9.02276 27.1054C8.723 27.2568 8.39326 27.378 8.03354 27.4385L7.88366 27.4688C7.8237 27.4991 7.76375 27.5294 7.7038 27.59C7.67382 27.6505 7.67382 27.7414 7.7038 27.802L7.79373 27.9534Z" fill="#7089BF"/>
<path d="M7.61408 40.643C6.50495 40.643 5.36585 39.7647 5.00614 38.6139C4.91621 38.3716 4.88623 38.1293 4.88623 37.887V37.7961C4.91621 37.1904 5.00614 36.615 5.21597 36.0396C5.36585 35.6459 5.54571 35.2825 5.75555 34.9493C6.05531 34.5253 6.41503 34.1316 6.83469 33.7985C7.37427 33.3745 8.00377 33.0413 8.69323 32.7688C9.38269 32.5265 10.1321 32.3448 10.9415 32.2539C10.5518 32.4356 10.1621 32.6476 9.80236 32.8899C9.6225 33.0111 9.47262 33.1322 9.35271 33.2533C8.66325 33.8288 8.15366 34.5859 7.82392 35.3733L7.76396 35.4945C7.73399 35.555 7.73399 35.6459 7.76396 35.7065C7.79394 35.767 7.85389 35.7973 7.94382 35.8276L8.0937 35.8579C8.45342 35.9185 8.78316 36.0093 9.08292 36.191C9.83233 36.5847 10.222 37.2813 10.252 38.2201C10.252 39.159 9.44264 40.5824 7.64406 40.643H7.61408Z" fill="#7089BF"/>
<path d="M4.19653 24.7129C4.13658 24.9854 4.10661 25.258 4.10661 25.5306V25.6517C4.13658 26.3483 4.28646 26.9843 4.4963 27.6203C4.67616 28.0746 4.88599 28.4985 5.15578 28.862C5.48552 29.3465 5.90519 29.7705 6.41479 30.1642C7.01431 30.6185 7.70377 31.0122 8.48316 31.2545C8.57308 31.2848 8.66301 31.3151 8.75294 31.3454L5.99512 31.3757H5.93516C5.6354 31.3757 5.33564 31.3454 5.03587 31.2848C4.46632 31.1637 3.92675 30.9214 3.44713 30.5882C2.9675 30.2248 2.51786 29.7705 2.12817 29.1951C2.03824 29.0437 1.94831 28.862 1.88835 28.6803C1.76845 28.3774 1.7085 28.014 1.7085 27.6506C1.7085 26.6511 2.12817 25.7123 2.78765 25.258C3.23729 24.8643 3.71691 24.7129 4.19653 24.7129Z" fill="#162361"/>
<path d="M2.18833 34.3133C2.54805 33.7379 2.99769 33.2836 3.47731 32.8899C3.95694 32.5265 4.46653 32.2842 5.03608 32.1631C5.30587 32.1025 5.60564 32.0419 5.9054 32.0419H6.02531L8.72318 32.0116C8.63325 32.0419 8.54332 32.0722 8.48337 32.1025C7.73396 32.3751 7.01453 32.7688 6.44497 33.2231C5.96535 33.6168 5.54568 34.0408 5.21594 34.5253C4.94616 34.8888 4.73632 35.343 4.58644 35.767C4.37661 36.403 4.22672 37.039 4.22672 37.7356V37.8567C4.22672 38.1293 4.2567 38.4019 4.34663 38.6744C4.31665 38.6744 4.28668 38.6744 4.28668 38.6744C3.83703 38.6744 3.35741 38.523 2.93774 38.2504C2.27826 37.7961 1.82861 36.8876 1.82861 35.8579C1.82861 35.4945 1.88857 35.131 2.00847 34.7979C2.00847 34.6465 2.0984 34.4648 2.18833 34.3133Z" fill="#162361"/>
<path d="M3.05748 31.1031C3.4172 31.3454 3.77692 31.5574 4.16661 31.7088C3.77692 31.8602 3.4172 32.0722 3.05748 32.3448C2.48793 32.7688 2.00831 33.2836 1.58864 33.9499C1.46874 34.1619 1.34883 34.3739 1.2589 34.6162C1.2589 34.6465 1.2589 34.6768 1.22893 34.6768C0.479516 34.1013 -0.0300822 33.0111 -0.0600586 31.7996C-0.0300822 31.3151 0.0298705 30.8608 0.149776 30.3762C0.359611 29.7402 0.719327 29.1648 1.16897 28.8014C1.16897 28.8317 1.19895 28.862 1.19895 28.8922C1.28888 29.1345 1.40878 29.3465 1.52869 29.5585C2.00831 30.1642 2.48793 30.7094 3.05748 31.1031Z" fill="#7089BF"/>
<path d="M12.8297 27.7111C12.8297 28.4682 12.2302 29.074 11.4808 29.074C10.7314 29.074 10.1318 28.4682 10.1318 27.7111C10.1318 26.954 10.7314 26.3483 11.4808 26.3483C12.2302 26.3483 12.8597 26.954 12.8297 27.7111Z" fill="#DEB82C"/>
<path d="M11.4808 36.9179C10.7314 36.9179 10.1318 36.3122 10.1318 35.555C10.1318 34.7979 10.7314 34.1922 11.4808 34.1922C12.2302 34.1922 12.8297 34.7979 12.8297 35.555C12.8597 36.3122 12.2302 36.9179 11.4808 36.9179Z" fill="#DEB82C"/>
</g>
<defs>
<clipPath id="clip0">
<rect width="203" height="52" fill="white"/>
</clipPath>
</defs>
</svg>
