<svg width="38" height="36" viewBox="0 0 38 36" fill="none" xmlns="http://www.w3.org/2000/svg">
<g clip-path="url(#clip0)">
<path d="M36.5109 26.925L37.4504 19.2857C37.7671 19.2429 37.9993 18.975 37.9993 18.6536V14.7964C37.9993 14.4429 37.7143 14.1536 37.3659 14.1536H35.7615C36.7115 13.0714 36.9859 11.55 36.4793 10.2C35.9726 8.85 34.7587 7.90714 33.3337 7.74643C33.9037 6.16071 33.3759 4.38214 32.0459 3.36429C30.7159 2.34643 28.8898 2.325 27.5387 3.31071C26.6098 2.03571 25.1004 1.28571 23.4326 1.28571C21.4482 1.28571 19.6854 2.36786 18.8621 4.02857C17.7115 3.66429 16.4554 3.87857 15.4843 4.60714C14.5132 5.33571 13.9432 6.48214 13.9432 7.71429C13.9432 7.75714 13.9432 7.8 13.9432 7.84286C13.4998 7.92857 13.0776 8.06786 12.6659 8.25C12.3704 7.68214 11.9904 7.15714 11.5259 6.71786C10.7448 5.95714 10.2593 4.93929 10.1643 3.84643H10.7765C11.1248 3.84643 11.4098 3.55714 11.4098 3.20357V1.92857C11.4098 0.867857 10.5548 0 9.50983 0H5.69928C4.65428 0 3.79928 0.867857 3.79928 1.92857V3.21429C3.79928 3.56786 4.08428 3.85714 4.43261 3.85714H5.04483C4.94983 4.95 4.46428 5.96786 3.68317 6.72857C2.54317 7.81071 1.89928 9.33214 1.89928 10.9286C1.89928 11.4 2.06817 11.8607 2.38483 12.2143C2.06817 12.5679 1.89928 13.0286 1.89928 13.5V14.1429H0.632611C0.284277 14.1429 -0.00072263 14.4321 -0.00072263 14.7857V18.6429C-0.00072263 18.9643 0.2315 19.2321 0.548166 19.275L1.48761 26.9357L0.2315 29.2929C-0.116834 29.925 -0.0746115 30.7071 0.3265 31.3071C0.727611 31.9071 1.42428 32.2286 2.1315 32.1321L2.34261 33.8357C2.49039 35.0679 3.57761 36 4.85483 36H33.1437C34.4209 36 35.5082 35.0679 35.6559 33.8357L35.8671 32.1C36.2576 32.1536 36.6587 32.0679 37.0071 31.875C37.4504 31.6286 37.7776 31.2214 37.9148 30.7286C38.0521 30.2357 37.9993 29.7107 37.7565 29.2607L36.5109 26.925ZM36.7326 15.4286V18H31.7187L30.3359 15.4286H36.7326ZM36.1732 19.2857L35.4659 24.9857L32.4048 19.2857H36.1732ZM17.7326 5.14286C18.1443 5.14286 18.5454 5.23929 18.9043 5.43214C19.0732 5.51786 19.2632 5.52857 19.4321 5.45357C19.6009 5.37857 19.7382 5.23929 19.7909 5.05714C20.2976 3.57857 21.7543 2.57143 23.4326 2.57143C24.8787 2.57143 26.2298 3.35357 26.8526 4.575C26.9476 4.75714 27.1271 4.88571 27.3382 4.91786C27.5387 4.93929 27.7498 4.86429 27.8871 4.71429C28.5943 3.92143 29.7026 3.65357 30.6737 4.03929C31.6554 4.41429 32.2993 5.36786 32.2993 6.42857C32.2993 7.00714 32.1093 7.575 31.7398 8.03571C31.5709 8.25 31.5498 8.55 31.6976 8.775C31.8348 9.01071 32.1093 9.11786 32.3732 9.06429C33.0804 8.90357 33.8087 9.05357 34.3998 9.48214C34.9909 9.91071 35.3709 10.5643 35.4448 11.2929C35.5293 12.0214 35.2971 12.75 34.8115 13.2964C34.3259 13.8429 33.6398 14.1536 32.9221 14.1536H31.3598C30.7265 12.1286 29.1537 10.5429 27.1482 9.93214C25.1426 9.32143 22.9682 9.75 21.3321 11.0893C21.1948 11.2071 21.0576 11.325 20.9204 11.4536C19.9071 9.17143 17.6693 7.71429 15.1993 7.71429C15.1993 6.3 16.3393 5.14286 17.7326 5.14286ZM30.0298 14.1429H20.6354C20.9626 13.3286 21.4798 12.6214 22.1554 12.0643C24.0132 10.5429 26.6626 10.5429 28.5204 12.0643C29.1854 12.6214 29.7026 13.3286 30.0298 14.1429ZM13.1198 9.45C14.8615 8.65714 16.8987 8.91429 18.3871 10.1357C19.1576 10.7679 19.7276 11.6143 20.0337 12.5679C19.7171 13.0607 19.4743 13.5857 19.2948 14.1429H13.2993V13.5C13.2993 13.0286 13.1304 12.5679 12.8137 12.2143C13.1304 11.8607 13.2993 11.4 13.2993 10.9286C13.2993 10.4357 13.2359 9.93214 13.1198 9.45ZM28.2882 15.4286L27.0848 16.0929C26.7787 16.2643 26.6626 16.65 26.8315 16.9607L27.3909 17.9893H10.6287L11.1671 16.9821C11.3359 16.6714 11.2198 16.275 10.9137 16.1143L9.66817 15.4286H28.2882ZM5.06594 1.92857C5.06594 1.575 5.35094 1.28571 5.69928 1.28571H9.49928C9.84761 1.28571 10.1326 1.575 10.1326 1.92857V2.57143H5.06594V1.92857ZM9.67872 6.42857H5.53039C5.99483 5.64643 6.25872 4.76786 6.32206 3.85714H8.88706C8.95039 4.76786 9.21428 5.64643 9.67872 6.42857ZM4.5065 7.71429H10.7026C11.5576 8.56071 12.0432 9.71786 12.0326 10.9286C12.0326 11.2821 11.7476 11.5714 11.3993 11.5714H3.79928C3.45094 11.5714 3.16594 11.2821 3.16594 10.9286C3.16594 9.71786 3.64094 8.56071 4.5065 7.71429ZM3.16594 13.5C3.16594 13.1464 3.45094 12.8571 3.79928 12.8571H11.3993C11.7476 12.8571 12.0326 13.1464 12.0326 13.5V14.1429H3.16594V13.5ZM1.26594 18V15.4286H7.68372L6.30094 18H1.26594ZM5.61483 19.2857L2.53261 25.0179L1.82539 19.2857H5.61483ZM2.45872 30.525C2.34261 30.7286 2.1315 30.8571 1.89928 30.8571C1.79372 30.8571 1.68817 30.8357 1.59317 30.7821C1.28706 30.6107 1.17094 30.225 1.33983 29.9143L8.63372 16.3393L9.74206 16.95L2.45872 30.525ZM34.3998 33.675C34.3259 34.2643 33.7876 34.7143 33.1437 34.7143H4.85483C4.21094 34.7143 3.67261 34.2643 3.59872 33.675L3.32428 31.4893C3.41928 31.3821 3.49317 31.2643 3.56705 31.1464L8.23261 22.4679V25.7143C8.23261 26.0679 8.51761 26.3571 8.86594 26.3571C9.21428 26.3571 9.49928 26.0679 9.49928 25.7143V21.8571C9.49928 21.5143 9.23539 21.2357 8.89761 21.2143L9.93206 19.2857H28.0771L29.1115 21.2143C28.7737 21.225 28.4993 21.5143 28.4993 21.8571V25.7143C28.4993 26.0679 28.7843 26.3571 29.1326 26.3571C29.4809 26.3571 29.7659 26.0679 29.7659 25.7143V22.425L34.4315 31.1036C34.4948 31.2321 34.5793 31.35 34.6743 31.4571L34.3998 33.675ZM36.7115 30.3643C36.6376 30.6107 36.4265 30.7929 36.1732 30.825C35.9198 30.8571 35.6771 30.7179 35.5504 30.4929L28.2565 16.9179L29.3648 16.3071L36.6587 29.8821C36.7432 30.0321 36.7537 30.2036 36.7115 30.3643Z" fill="white"/>
<path d="M6.33329 27.6429C5.98495 27.6429 5.69995 27.9322 5.69995 28.2857V32.1429C5.69995 32.4965 5.98495 32.7857 6.33329 32.7857C6.68162 32.7857 6.96662 32.4965 6.96662 32.1429V28.2857C6.96662 27.9322 6.68162 27.6429 6.33329 27.6429Z" fill="white"/>
<path d="M8.86661 27.6429C8.51828 27.6429 8.23328 27.9322 8.23328 28.2857V32.1429C8.23328 32.4965 8.51828 32.7857 8.86661 32.7857C9.21494 32.7857 9.49994 32.4965 9.49994 32.1429V28.2857C9.49994 27.9322 9.21494 27.6429 8.86661 27.6429Z" fill="white"/>
<path d="M11.4001 21.2143C11.0517 21.2143 10.7667 21.5036 10.7667 21.8572V25.7143C10.7667 26.0679 11.0517 26.3572 11.4001 26.3572C11.7484 26.3572 12.0334 26.0679 12.0334 25.7143V21.8572C12.0334 21.5036 11.7484 21.2143 11.4001 21.2143Z" fill="white"/>
<path d="M11.4001 27.6429C11.0517 27.6429 10.7667 27.9322 10.7667 28.2857V32.1429C10.7667 32.4965 11.0517 32.7857 11.4001 32.7857C11.7484 32.7857 12.0334 32.4965 12.0334 32.1429V28.2857C12.0334 27.9322 11.7484 27.6429 11.4001 27.6429Z" fill="white"/>
<path d="M13.9334 21.2143C13.585 21.2143 13.3 21.5036 13.3 21.8572V25.7143C13.3 26.0679 13.585 26.3572 13.9334 26.3572C14.2817 26.3572 14.5667 26.0679 14.5667 25.7143V21.8572C14.5667 21.5036 14.2817 21.2143 13.9334 21.2143Z" fill="white"/>
<path d="M13.9334 27.6429C13.585 27.6429 13.3 27.9322 13.3 28.2857V32.1429C13.3 32.4965 13.585 32.7857 13.9334 32.7857C14.2817 32.7857 14.5667 32.4965 14.5667 32.1429V28.2857C14.5667 27.9322 14.2817 27.6429 13.9334 27.6429Z" fill="white"/>
<path d="M24.0667 21.2143C23.7184 21.2143 23.4333 21.5036 23.4333 21.8572V25.7143C23.4333 26.0679 23.7184 26.3572 24.0667 26.3572C24.415 26.3572 24.7 26.0679 24.7 25.7143V21.8572C24.7 21.5036 24.415 21.2143 24.0667 21.2143Z" fill="white"/>
<path d="M24.0667 27.6429C23.7184 27.6429 23.4333 27.9322 23.4333 28.2857V32.1429C23.4333 32.4965 23.7184 32.7857 24.0667 32.7857C24.415 32.7857 24.7 32.4965 24.7 32.1429V28.2857C24.7 27.9322 24.415 27.6429 24.0667 27.6429Z" fill="white"/>
<path d="M26.6 21.2143C26.2517 21.2143 25.9667 21.5036 25.9667 21.8572V25.7143C25.9667 26.0679 26.2517 26.3572 26.6 26.3572C26.9483 26.3572 27.2333 26.0679 27.2333 25.7143V21.8572C27.2333 21.5036 26.9483 21.2143 26.6 21.2143Z" fill="white"/>
<path d="M26.6 27.6429C26.2517 27.6429 25.9667 27.9322 25.9667 28.2857V32.1429C25.9667 32.4965 26.2517 32.7857 26.6 32.7857C26.9483 32.7857 27.2333 32.4965 27.2333 32.1429V28.2857C27.2333 27.9322 26.9483 27.6429 26.6 27.6429Z" fill="white"/>
<path d="M29.1333 27.6429C28.785 27.6429 28.5 27.9322 28.5 28.2857V32.1429C28.5 32.4965 28.785 32.7857 29.1333 32.7857C29.4817 32.7857 29.7667 32.4965 29.7667 32.1429V28.2857C29.7667 27.9322 29.4817 27.6429 29.1333 27.6429Z" fill="white"/>
<path d="M31.6667 27.6429C31.3183 27.6429 31.0333 27.9322 31.0333 28.2857V32.1429C31.0333 32.4965 31.3183 32.7857 31.6667 32.7857C32.015 32.7857 32.3 32.4965 32.3 32.1429V28.2857C32.3 27.9322 32.015 27.6429 31.6667 27.6429Z" fill="white"/>
<path d="M19 21.2143C18.6517 21.2143 18.3667 21.5036 18.3667 21.8572V25.7143C18.3667 26.0679 18.6517 26.3572 19 26.3572C19.3484 26.3572 19.6334 26.0679 19.6334 25.7143V21.8572C19.6334 21.5036 19.3484 21.2143 19 21.2143Z" fill="white"/>
<path d="M19 27.6429C18.6517 27.6429 18.3667 27.9322 18.3667 28.2857V32.1429C18.3667 32.4965 18.6517 32.7857 19 32.7857C19.3484 32.7857 19.6334 32.4965 19.6334 32.1429V28.2857C19.6334 27.9322 19.3484 27.6429 19 27.6429Z" fill="white"/>
<path d="M16.4667 21.2143C16.1184 21.2143 15.8334 21.5036 15.8334 21.8572V25.7143C15.8334 26.0679 16.1184 26.3572 16.4667 26.3572C16.815 26.3572 17.1 26.0679 17.1 25.7143V21.8572C17.1 21.5036 16.815 21.2143 16.4667 21.2143Z" fill="white"/>
<path d="M16.4667 27.6429C16.1184 27.6429 15.8334 27.9322 15.8334 28.2857V32.1429C15.8334 32.4965 16.1184 32.7857 16.4667 32.7857C16.815 32.7857 17.1 32.4965 17.1 32.1429V28.2857C17.1 27.9322 16.815 27.6429 16.4667 27.6429Z" fill="white"/>
<path d="M21.5334 21.2143C21.185 21.2143 20.9 21.5036 20.9 21.8572V25.7143C20.9 26.0679 21.185 26.3572 21.5334 26.3572C21.8817 26.3572 22.1667 26.0679 22.1667 25.7143V21.8572C22.1667 21.5036 21.8817 21.2143 21.5334 21.2143Z" fill="white"/>
<path d="M21.5334 27.6429C21.185 27.6429 20.9 27.9322 20.9 28.2857V32.1429C20.9 32.4965 21.185 32.7857 21.5334 32.7857C21.8817 32.7857 22.1667 32.4965 22.1667 32.1429V28.2857C22.1667 27.9322 21.8817 27.6429 21.5334 27.6429Z" fill="white"/>
</g>
<defs>
<clipPath id="clip0">
<rect width="38" height="36" fill="white"/>
</clipPath>
</defs>
</svg>
