<?xml version="1.0" encoding="UTF-8" standalone="no"?> <!-- Created with Vectornator for iOS (http://vectornator.io/) --><!DOCTYPE svg PUBLIC "-//W3C//DTD SVG 1.1//EN" "http://www.w3.org/Graphics/SVG/1.1/DTD/svg11.dtd">
<svg height="100%" style="fill-rule:nonzero;clip-rule:evenodd;stroke-linecap:round;stroke-linejoin:round;" xmlns:xlink="http://www.w3.org/1999/xlink" xmlns="http://www.w3.org/2000/svg" xml:space="preserve" width="100%" xmlns:vectornator="http://vectornator.io" version="1.1" viewBox="0 0 1920 1920">
<metadata>
<vectornator:setting key="DimensionsVisible" value="1"/>
<vectornator:setting key="PencilOnly" value="0"/>
<vectornator:setting key="SnapToPoints" value="0"/>
<vectornator:setting key="OutlineMode" value="0"/>
<vectornator:setting key="CMYKEnabledKey" value="0"/>
<vectornator:setting key="RulersVisible" value="1"/>
<vectornator:setting key="SnapToEdges" value="0"/>
<vectornator:setting key="GuidesVisible" value="1"/>
<vectornator:setting key="DisplayWhiteBackground" value="0"/>
<vectornator:setting key="doHistoryDisabled" value="0"/>
<vectornator:setting key="SnapToGuides" value="1"/>
<vectornator:setting key="TimeLapseWatermarkDisabled" value="0"/>
<vectornator:setting key="Units" value="Pixels"/>
<vectornator:setting key="DynamicGuides" value="0"/>
<vectornator:setting key="IsolateActiveLayer" value="0"/>
<vectornator:setting key="SnapToGrid" value="0"/>
</metadata>
<defs>
<radialGradient cx="32" r="30.775" id="RadialGradient" gradientUnits="userSpaceOnUse" gradientTransform="matrix(24.2767 0 0 24.2767 186.658 202.299)" cy="31.5">
<stop stop-color="#eed7a2" offset="0"/>
<stop stop-color="#f1dcab" offset="0.106"/>
<stop stop-color="#f8e8c3" offset="0.437"/>
<stop stop-color="#fcefd2" offset="0.744"/>
<stop stop-color="#fef2d7" offset="1"/>
</radialGradient>
<linearGradient y1="70.752" id="LinearGradient" x1="24" y2="23.146" x2="24" gradientUnits="userSpaceOnUse" gradientTransform="matrix(24.2767 0 0 24.2767 186.658 202.299)">
<stop stop-color="#155cde" offset="0"/>
<stop stop-color="#1f7fe5" offset="0.278"/>
<stop stop-color="#279ceb" offset="0.569"/>
<stop stop-color="#2cafef" offset="0.82"/>
<stop stop-color="#2eb5f0" offset="1"/>
</linearGradient>
<linearGradient y1="58.14" id="LinearGradient_2" x1="41.5" y2="-2.103" x2="41.5" gradientUnits="userSpaceOnUse" gradientTransform="matrix(24.2767 0 0 24.2767 186.658 202.299)">
<stop stop-color="#155cde" offset="0"/>
<stop stop-color="#1f7fe5" offset="0.278"/>
<stop stop-color="#279ceb" offset="0.569"/>
<stop stop-color="#2cafef" offset="0.82"/>
<stop stop-color="#2eb5f0" offset="1"/>
</linearGradient>
<linearGradient y1="24.267" id="LinearGradient_3" x1="43" y2="5.755" x2="43" gradientUnits="userSpaceOnUse" gradientTransform="matrix(24.2767 0 0 24.2767 186.658 202.299)">
<stop stop-color="#155cde" offset="0"/>
<stop stop-color="#1f7fe5" offset="0.278"/>
<stop stop-color="#279ceb" offset="0.569"/>
<stop stop-color="#2cafef" offset="0.82"/>
<stop stop-color="#2eb5f0" offset="1"/>
</linearGradient>
<linearGradient y1="16.5" id="LinearGradient_4" x1="35.962" y2="16.5" x2="58.347" gradientUnits="userSpaceOnUse" gradientTransform="matrix(24.2767 0 0 24.2767 186.658 202.299)">
<stop stop-color="#0d47a1" offset="0"/>
<stop stop-color="#135fba" offset="0.365"/>
<stop stop-color="#1770cc" offset="0.734"/>
<stop stop-color="#1976d2" offset="1"/>
</linearGradient>
<linearGradient y1="15.898" id="LinearGradient_5" x1="32" y2="7.562" x2="32" gradientUnits="userSpaceOnUse" gradientTransform="matrix(24.2767 0 0 24.2767 186.658 202.299)">
<stop stop-color="#155cde" offset="0"/>
<stop stop-color="#1f7fe5" offset="0.278"/>
<stop stop-color="#279ceb" offset="0.569"/>
<stop stop-color="#2cafef" offset="0.82"/>
<stop stop-color="#2eb5f0" offset="1"/>
</linearGradient>
<linearGradient y1="56" id="LinearGradient_6" x1="41.5" y2="45" x2="41.5" gradientUnits="userSpaceOnUse" gradientTransform="matrix(24.2767 0 0 24.2767 186.658 202.299)">
<stop stop-color="#0d47a1" offset="0"/>
<stop stop-color="#135fba" offset="0.365"/>
<stop stop-color="#1770cc" offset="0.734"/>
<stop stop-color="#1976d2" offset="1"/>
</linearGradient>
</defs>
<g id="Capa 1" vectornator:layerName="Capa 1">
<path d="M1740.37+784.94L1740.37+784.94C1740.37+717.912+1686.01+663.556+1618.98+663.556L1521.88+663.556C1454.85+663.556+1400.49+609.225+1400.49+542.173L1400.49+542.173C1400.49+475.12+1454.83+420.789+1521.88+420.789L1535.59+420.789C1582.08+420.789+1618.98+383.888+1618.98+338.37L1618.98+335.821C1618.98+288.894+1580.94+250.852+1534.02+250.852L587.224+250.852C540.467+250.852+502.498+288.627+502.255+335.408L502.255+335.821C502.012+382.675+539.933+420.789+586.811+420.789L599.362+420.789C652.989+420.789+696.469+464.269+696.469+517.896L696.469+517.896C696.469+571.523+652.989+615.003+599.362+615.003L308.041+615.003C241.013+615.003+186.658+669.358+186.658+736.386L186.658+736.386C186.658+803.414+241.013+857.77+308.041+857.77L332.318+857.77C385.945+857.77+429.425+901.25+429.425+954.877L429.425+954.877C429.425+1008.5+385.945+1051.98+332.318+1051.98L320.18+1051.98C246.427+1051.98+186.658+1111.75+186.658+1185.51L186.658+1185.51C186.658+1259.26+246.427+1319.03+320.18+1319.03L672.192+1319.03C712.419+1319.03+745.022+1351.63+745.022+1391.86L745.022+1391.86C745.022+1432.08+712.419+1464.69+672.192+1464.69L514.394+1464.69C454.066+1464.69+405.148+1513.61+405.148+1573.93L405.148+1573.93C405.148+1634.26+454.066+1683.18+514.394+1683.18L987.79+1683.18L1473.32+1683.18C1526.95+1683.18+1570.43+1639.7+1570.43+1586.07L1570.43+1586.07C1570.43+1532.44+1526.95+1488.96+1473.32+1488.96L1388.36+1488.96C1341.43+1488.96+1303.39+1450.92+1303.39+1404L1303.39+1404C1303.39+1357.07+1341.43+1319.03+1388.36+1319.03L1643.26+1319.03C1696.89+1319.03+1740.37+1275.55+1740.37+1221.92L1740.37+1221.92C1740.37+1168.29+1696.89+1124.81+1643.26+1124.81L1606.85+1124.81C1546.52+1124.81+1497.6+1075.9+1497.6+1015.57L1497.6+1015.57C1497.6+955.241+1546.52+906.323+1606.85+906.323L1618.98+906.323C1686.01+906.323+1740.37+851.968+1740.37+784.94Z" opacity="0" fill="url(#RadialGradient)"/>
<path d="M575.085+1561.79L963.513+1561.79C1003.74+1561.79+1036.34+1529.19+1036.34+1488.96L1036.34+712.11L502.255+712.11L502.255+1488.96C502.255+1529.19+534.859+1561.79+575.085+1561.79Z" opacity="1" fill="url(#LinearGradient)"/>
<path d="M1351.94+1561.79L963.513+1561.79L963.513+1561.79C1003.74+1561.79+1036.34+1529.19+1036.34+1488.96L1036.34+712.11L1424.77+712.11L1424.77+1488.96C1424.77+1529.19+1392.17+1561.79+1351.94+1561.79Z" opacity="1" fill="url(#LinearGradient_2)"/>
<path d="M502.255+712.11L1036.34+712.11L1230.56+493.619L696.469+493.619L502.255+712.11Z" opacity="1" fill="#badbf0"/>
<path d="M1230.56+493.619L1424.77+712.11L1036.34+712.11L1230.56+493.619Z" opacity="1" fill="url(#LinearGradient_3)"/>
<path d="M1230.56+493.619L1424.77+712.11L1165.47+566.838L1230.56+493.619Z" opacity="1" fill="url(#LinearGradient_4)"/>
<path d="M696.469+493.619L1230.56+493.619L1230.56+445.066C1230.56+418.24+1208.83+396.512+1182+396.512L745.022+396.512C718.197+396.512+696.469+418.24+696.469+445.066L696.469+493.619Z" opacity="1" fill="url(#LinearGradient_5)"/>
<path d="M1109.17+1379.72L1109.17+1404C1109.17+1424.1+1125.49+1440.41+1145.59+1440.41L1145.59+1440.41C1165.69+1440.41+1182+1424.1+1182+1404L1182+1331.17C1182+1311.06+1198.32+1294.75+1218.42+1294.75L1218.42+1294.75C1238.52+1294.75+1254.83+1311.06+1254.83+1331.17L1254.83+1355.44C1254.83+1375.54+1271.15+1391.86+1291.25+1391.86L1291.25+1391.86C1311.35+1391.86+1327.66+1375.54+1327.66+1355.44L1327.66+1343.3C1327.66+1316.48+1349.39+1294.75+1376.22+1294.75L1376.22+1294.75C1403.04+1294.75+1424.77+1316.48+1424.77+1343.3L1424.77+1488.96C1424.77+1529.19+1392.17+1561.79+1351.94+1561.79L963.513+1561.79L963.513+1561.79C1003.74+1561.79+1036.34+1529.19+1036.34+1488.96L1036.34+1379.72C1036.34+1359.62+1052.66+1343.3+1072.76+1343.3L1072.76+1343.3C1092.86+1343.3+1109.17+1359.62+1109.17+1379.72Z" opacity="1" fill="url(#LinearGradient_6)"/>
</g>
<g id="Capa 2" vectornator:layerName="Capa 2">
<g opacity="1">
<path stroke="#ded2d6" stroke-width="1.77515" d="M650.636+1078.85C649.794+1084.55+648.948+1091.52+648.099+1099.76C647.25+1108.01+646.677+1114.17+646.381+1118.24C639.961+1117.89+631.96+1117.53+622.378+1117.16C612.796+1116.79+604.997+1116.54+598.98+1116.41C592.454+1116.26+584.039+1116.17+573.735+1116.14C563.431+1116.12+555.728+1116.09+550.627+1116.08C550.321+1116.07+550.05+1115.69+549.812+1114.92C549.574+1114.14+549.464+1113.4+549.48+1112.69C549.491+1112.18+549.634+1111.52+549.907+1110.71C550.18+1109.9+550.471+1109.45+550.779+1109.35C556.71+1108.77+560.639+1107.58+562.567+1105.79C564.495+1104+565.506+1101.01+565.6+1096.83L567.115+1029.68C567.209+1025.5+566.333+1022.47+564.488+1020.59C562.643+1018.71+558.771+1017.35+552.873+1016.5C552.569+1016.39+552.299+1015.93+552.063+1015.11C551.826+1014.29+551.714+1013.62+551.725+1013.11C551.741+1012.4+551.885+1011.66+552.158+1010.9C552.43+1010.14+552.719+1009.77+553.025+1009.77C557.92+1009.88+562.939+1010.12+568.083+1010.5C573.227+1010.87+578.093+1011.1+582.682+1011.21C587.373+1011.31+592.27+1011.3+597.375+1011.16C602.479+1011.02+607.53+1011+612.527+1011.12C612.833+1011.12+613.104+1011.54+613.34+1012.36C613.577+1013.18+613.688+1013.9+613.674+1014.51C613.663+1015.02+613.52+1015.7+613.245+1016.56C612.971+1017.43+612.681+1017.85+612.375+1017.85C606.447+1018.32+602.492+1019.51+600.511+1021.4C598.529+1023.3+597.493+1026.28+597.401+1030.36L595.835+1099.81C595.752+1103.48+596.692+1105.92+598.654+1107.14C600.616+1108.36+602.617+1108.99+604.656+1109.04L613.375+1109.23C620.513+1109.39+626.937+1106.17+632.646+1099.57C638.355+1092.96+642.069+1085.5+643.787+1077.17C643.792+1076.96+643.974+1076.82+644.333+1076.72C644.692+1076.63+645.229+1076.59+645.943+1076.6C647.064+1076.63+648.156+1076.86+649.218+1077.29C650.279+1077.72+650.752+1078.24+650.636+1078.85Z" fill="#badbf0" stroke-linecap="round" opacity="1" stroke-linejoin="round"/>
<path stroke="#ded2d6" stroke-width="1.77515" d="M732.964+1079.18C732.948+1079.89+732.68+1080.45+732.161+1080.84C731.642+1081.24+730.924+1081.43+730.006+1081.41L687.788+1080.46C687.67+1081.17+687.598+1082.11+687.572+1083.28C687.545+1084.45+687.521+1085.55+687.498+1086.57C687.304+1095.14+688.572+1101.13+691.3+1104.56C694.029+1107.99+698.044+1109.76+703.347+1109.88C707.018+1109.97+711.169+1109.14+715.799+1107.41C720.429+1105.68+723.795+1103.46+725.897+1100.75C726.003+1100.55+726.307+1100.63+726.809+1101C727.311+1101.37+727.762+1101.71+728.163+1102.03C728.662+1102.55+729.083+1103.09+729.427+1103.66C729.772+1104.23+729.938+1104.77+729.927+1105.28C729.922+1105.48+729.892+1105.69+729.836+1105.89C729.781+1106.09+729.649+1106.29+729.44+1106.49C726.808+1110.11+722.954+1113.59+717.879+1116.95C712.805+1120.3+706.086+1121.88+697.724+1121.69C686.813+1121.45+677.715+1117.72+670.429+1110.52C663.144+1103.32+659.609+1094.92+659.825+1085.33C660.069+1074.53+663.815+1065.66+671.062+1058.73C678.309+1051.8+687.745+1048.47+699.37+1048.73C709.975+1048.97+718.272+1052.01+724.262+1057.86C730.252+1063.71+733.152+1070.82+732.964+1079.18ZM707.831+1067.13C707.9+1064.08+707.27+1061.46+705.942+1059.29C704.614+1057.11+702.573+1056+699.819+1055.93C696.454+1055.86+693.919+1057.43+692.214+1060.66C690.509+1063.89+689.341+1068.15+688.712+1073.44L701.262+1073.41C703.507+1073.36+705.149+1072.97+706.186+1072.22C707.223+1071.48+707.771+1069.79+707.831+1067.13Z" fill="#badbf0" stroke-linecap="round" opacity="1" stroke-linejoin="round"/>
<path stroke="#ded2d6" stroke-width="1.77515" d="M813.527+1069.52C813.465+1072.27+812.541+1074.78+810.756+1077.03C808.971+1079.29+806.395+1080.38+803.03+1080.3C799.155+1080.21+796.453+1079.03+794.923+1076.75C793.393+1074.47+792.252+1071.89+791.501+1069.02C790.844+1066.46+789.982+1063.96+788.915+1061.54C787.847+1059.12+785.885+1057.88+783.03+1057.81C779.053+1057.72+775.876+1059.51+773.497+1063.18C771.119+1066.85+769.804+1074.25+769.554+1085.36C769.379+1093.11+770.359+1099.41+772.495+1104.25C774.63+1109.09+779.318+1111.6+786.558+1111.76C790.535+1111.85+794.53+1111.15+798.542+1109.66C802.555+1108.17+805.604+1106.43+807.689+1104.43C807.796+1104.23+808.126+1104.31+808.678+1104.68C809.231+1105.05+809.656+1105.45+809.953+1105.86C810.451+1106.38+810.872+1106.93+811.217+1107.5C811.561+1108.06+811.729+1108.55+811.719+1108.96C811.715+1109.17+811.685+1109.37+811.629+1109.57C811.573+1109.77+811.492+1109.98+811.386+1110.18C808.545+1113.99+804.34+1117.21+798.772+1119.84C793.203+1122.47+786.952+1123.71+780.017+1123.55C769.718+1123.32+760.717+1119.8+753.014+1112.99C745.312+1106.19+741.587+1097.18+741.84+1085.96C742.093+1074.74+746.193+1065.98+754.14+1059.68C762.087+1053.39+771.771+1050.36+783.192+1050.62C790.738+1050.79+797.709+1052.71+804.105+1056.37C810.502+1060.04+813.642+1064.42+813.527+1069.52Z" fill="#badbf0" stroke-linecap="round" opacity="1" stroke-linejoin="round"/>
<path stroke="#ded2d6" stroke-width="1.77515" d="M912.915+1120.88C912.901+1121.5+912.758+1122.21+912.485+1123.02C912.211+1123.83+911.922+1124.23+911.616+1124.22C908.454+1124.15+904.812+1123.94+900.688+1123.59C896.563+1123.25+892.717+1123.03+889.148+1122.95C885.68+1122.87+882.261+1122.92+878.891+1123.1C875.52+1123.28+872.305+1123.34+869.245+1123.27C868.939+1123.26+868.668+1122.85+868.432+1122.02C868.195+1121.2+868.084+1120.49+868.098+1119.87C868.109+1119.36+868.252+1118.7+868.525+1117.89C868.798+1117.08+869.089+1116.63+869.397+1116.54C871.444+1116.28+872.996+1115.32+874.053+1113.66C875.111+1112+875.695+1108.72+875.805+1103.83L876.35+1079.66C876.465+1074.56+875.936+1070.9+874.761+1068.68C873.587+1066.46+871.267+1065.31+867.799+1065.23C864.842+1065.17+862.423+1066.11+860.543+1068.05C858.663+1070+856.755+1073.15+854.821+1077.49L854.238+1103.34C854.137+1107.83+854.549+1111.05+855.474+1113.01C856.399+1114.97+857.879+1116.07+859.914+1116.32C860.22+1116.33+860.49+1116.77+860.726+1117.64C860.961+1118.51+861.073+1119.21+861.061+1119.72C861.045+1120.43+860.901+1121.17+860.629+1121.92C860.357+1122.68+860.068+1123.06+859.762+1123.05C856.601+1122.98+853.391+1122.78+850.134+1122.45C846.876+1122.12+843.463+1121.92+839.894+1121.84C836.325+1121.76+832.473+1121.8+828.337+1121.96C824.201+1122.12+820.604+1122.17+817.545+1122.1C817.239+1122.09+816.967+1121.71+816.729+1120.93C816.491+1120.16+816.381+1119.42+816.397+1118.71C816.408+1118.2+816.551+1117.54+816.824+1116.73C817.097+1115.92+817.388+1115.47+817.696+1115.37C822.195+1114.96+825.047+1114.03+826.253+1112.58C827.459+1111.13+828.119+1107.85+828.234+1102.75L829.659+1039.58C829.749+1035.6+829.043+1032.96+827.542+1031.65C826.041+1030.34+823.409+1029.44+819.645+1028.95C819.342+1028.84+819.071+1028.4+818.833+1027.63C818.596+1026.86+818.483+1026.22+818.494+1025.71C818.506+1025.2+818.648+1024.54+818.921+1023.73C819.195+1022.92+819.484+1022.52+819.79+1022.52C824.606+1021.61+830.176+1020.05+836.5+1017.85C842.825+1015.65+847.534+1013.81+850.627+1012.35C850.938+1012.16+851.453+1011.91+852.174+1011.62C852.895+1011.33+853.51+1011.19+854.02+1011.21C855.346+1011.23+856.259+1011.46+856.76+1011.88C857.26+1012.3+857.505+1012.76+857.493+1013.27C857.1+1017.14+856.718+1021.62+856.348+1026.71C855.979+1031.81+855.758+1035.93+855.687+1039.1L855.073+1066.32C857.424+1061.58+860.818+1058.11+865.255+1055.92C869.691+1053.72+874.102+1052.67+878.487+1052.77C886.135+1052.94+892.047+1055.45+896.223+1060.29C900.399+1065.13+902.419+1070.55+902.284+1076.57L901.656+1104.41C901.545+1109.3+902.084+1112.58+903.271+1114.24C904.457+1115.9+907.29+1116.98+911.767+1117.49C912.073+1117.5+912.344+1117.94+912.579+1118.81C912.815+1119.68+912.927+1120.37+912.915+1120.88Z" fill="#badbf0" stroke-linecap="round" opacity="1" stroke-linejoin="round"/>
<path stroke="#ded2d6" stroke-width="1.77515" d="M989.48+1084.96C989.463+1085.68+989.196+1086.23+988.677+1086.63C988.158+1087.03+987.439+1087.21+986.522+1087.19L944.304+1086.24C944.186+1086.95+944.114+1087.89+944.087+1089.07C944.061+1090.24+944.036+1091.34+944.013+1092.36C943.82+1100.92+945.088+1106.92+947.816+1110.35C950.545+1113.78+954.56+1115.55+959.863+1115.67C963.534+1115.75+967.684+1114.93+972.315+1113.19C976.945+1111.46+980.311+1109.24+982.412+1106.54C982.519+1106.33+982.823+1106.42+983.325+1106.79C983.827+1107.15+984.278+1107.5+984.679+1107.81C985.178+1108.33+985.599+1108.88+985.943+1109.45C986.287+1110.02+986.454+1110.56+986.442+1111.06C986.438+1111.27+986.408+1111.47+986.352+1111.68C986.296+1111.88+986.164+1112.08+985.956+1112.28C983.324+1115.89+979.47+1119.38+974.395+1122.73C969.32+1126.08+962.602+1127.67+954.24+1127.48C943.329+1127.23+934.23+1123.51+926.945+1116.3C919.66+1109.1+916.125+1100.7+916.341+1091.12C916.585+1080.31+920.33+1071.44+927.577+1064.51C934.824+1057.59+944.26+1054.25+955.885+1054.52C966.491+1054.76+974.788+1057.8+980.778+1063.65C986.768+1069.5+989.668+1076.6+989.48+1084.96ZM964.347+1072.92C964.416+1069.86+963.786+1067.24+962.458+1065.07C961.129+1062.9+959.088+1061.78+956.335+1061.72C952.97+1061.64+950.435+1063.22+948.73+1066.45C947.025+1069.67+945.857+1073.93+945.228+1079.22L957.777+1079.2C960.023+1079.15+961.665+1078.75+962.702+1078.01C963.739+1077.27+964.287+1075.57+964.347+1072.92Z" fill="#badbf0" stroke-linecap="round" opacity="1" stroke-linejoin="round"/>
</g>
</g>
</svg>
