<svg width="34" height="33" viewBox="0 0 34 33" fill="none" xmlns="http://www.w3.org/2000/svg">
<path d="M1.6028 5.92123C2.96847 6.75862 4.99002 7.62217 5.8795 8.86951C4.79235 10.2913 4.49586 11.2857 5.02595 11.8091L11.1355 17.7405C9.41047 19.424 11.414 17.4701 1.02778 27.5536C0.165253 28.3386 -0.194133 29.5162 0.102361 30.6327C0.398855 31.7492 1.28834 32.6215 2.43837 32.9006C3.58841 33.1885 4.80134 32.8396 5.60996 32.0022C5.79863 31.819 4.02866 33.5374 15.7177 22.1891L21.8273 28.1206C22.564 28.8184 24.0375 27.8938 24.8551 27.2919C26.1399 28.1642 27.0294 30.1268 27.8919 31.4439C28.5747 32.4819 29.8056 33.0576 31.0635 32.9181C32.3213 32.7785 33.3905 31.9498 33.8128 30.7897C34.2351 29.6296 33.9296 28.3299 33.0311 27.4664C32.0608 26.5243 29.3025 25.6433 28.1794 24.0732C28.997 23.0178 29.6888 21.7704 29.033 21.1337L24.9 17.1212C26.0501 16.6938 27.1731 16.1792 28.2513 15.6035C29.4373 14.958 30.5334 14.1817 31.5217 13.2745C36.5082 8.43338 33.0581 0.111899 25.9872 0.111899C23.8578 0.111899 21.8183 0.931835 20.3178 2.39725C18.5658 4.26392 17.2181 6.4446 16.3466 8.81718L12.2227 4.81345C11.6836 4.29881 10.6683 4.58666 9.20382 5.65083C7.91003 4.78728 7.02953 2.81594 6.16701 1.49009C5.43925 0.373581 4.09155 -0.193396 2.75284 0.0595628C1.42311 0.303799 0.380885 1.31564 0.129315 2.6066C-0.13124 3.90628 0.461747 5.21469 1.6028 5.92123ZM13.8848 17.5225C14.7294 17.5399 15.4751 18.0545 15.7896 18.8134C16.104 19.5723 15.9154 20.4446 15.3134 21.0203C15.2595 21.0726 15.4302 20.9156 14.8102 21.5087C14.4598 20.0782 13.3008 18.953 11.8184 18.6215C12.4742 17.9848 12.2676 18.1941 12.3305 18.1243C12.7438 17.7231 13.3098 17.505 13.8848 17.5225ZM31.0904 3.58354C31.3869 4.35987 31.378 5.21469 31.0725 5.99102C29.4373 11.1985 21.4858 15.0539 16.4994 17.7754C16.4634 17.7231 16.0411 18.2116 31.0904 3.58354ZM30.2908 2.81594L15.6997 16.9904C15.6638 16.9642 15.6368 16.9468 15.6009 16.9206C18.0268 12.9256 20.4616 8.47699 23.5254 5.51127C25.8704 3.22591 28.7814 2.11813 30.2908 2.81594ZM6.63421 29.4551C5.84356 30.2227 3.77709 29.2022 3.4177 27.6059C3.30988 27.2396 3.39075 26.8471 3.6513 26.5592C11.3152 19.1274 10.3628 20.0433 10.5066 19.9038C10.6953 19.7206 10.9558 19.6334 11.2164 19.6421C12.7797 19.6421 14.388 21.7094 13.4895 22.7997L6.63421 29.4551ZM1.80945 31.2433C0.982857 30.4321 0.991842 29.1324 1.82742 28.3299L2.32157 27.8502C2.68096 29.2807 3.83099 30.3972 5.30448 30.7461L4.81032 31.2259C3.98373 32.0371 2.64502 32.0458 1.80945 31.2433ZM32.2225 28.234C32.8155 28.8097 33.0132 29.6645 32.7436 30.4234C32.4651 31.191 31.7643 31.7318 30.9287 31.8277C30.1021 31.9237 29.2845 31.5399 28.8443 30.8508C28.0177 29.586 27.1552 27.667 25.7536 26.5679C26.3465 26.062 26.9126 25.5125 27.4337 24.9368C28.8353 26.6203 31.4678 27.4925 32.2225 28.234ZM28.1614 21.8315C28.1255 22.1978 27.4427 23.4452 25.8254 25.0066C24.2082 26.5679 22.9414 27.2396 22.555 27.2745L16.4724 21.3692C16.7959 20.9156 16.9935 20.3835 17.0474 19.834C19.0869 19.1449 21.4769 18.386 23.75 17.5573L28.1614 21.8315ZM30.7131 12.4894C27.856 15.2807 22.4203 16.877 17.3978 18.543C22.7437 15.6296 31.2342 11.4253 32.3393 5.54616C33.2378 7.97107 32.5999 10.6838 30.7131 12.4894ZM18.9072 6.12186C19.5182 5.05768 20.2639 4.06329 21.1265 3.17358C22.9953 1.3418 25.7805 0.731213 28.2782 1.59476C22.3304 2.63277 18.1436 10.553 15.0618 15.6383L17.1013 10.0122C17.5775 8.66889 18.1795 7.36048 18.9072 6.12186ZM15.9154 9.95113L13.5704 16.4321C12.9953 16.4757 12.4473 16.6764 11.9711 16.9991L5.89747 11.1025C6.12208 10.4134 6.49944 9.77668 7.01156 9.24459C7.77526 8.32871 8.63779 7.49132 9.58117 6.74117C10.1292 6.24398 10.7851 5.87762 11.4949 5.65955L15.9154 9.95113ZM1.82742 1.70816C2.29462 1.25458 2.9505 1.02779 3.60638 1.10629C4.26226 1.17607 4.85525 1.5337 5.20565 2.08324C6.04122 3.33931 6.91273 5.26703 8.30535 6.36609C7.70338 6.86329 7.14633 7.41282 6.62522 7.99724C5.49316 6.6365 3.50755 5.79039 2.21376 4.99662C1.65671 4.65644 1.28834 4.08074 1.21646 3.44398C1.1356 2.80722 1.36021 2.17046 1.82742 1.70816Z" fill="white"/>
</svg>
