<svg width="11" height="10" viewBox="0 0 11 10" fill="none" xmlns="http://www.w3.org/2000/svg">
<path d="M10.2068 1.62883L10.207 1.62921C10.7452 2.73979 10.5657 4.04107 9.45728 5.57733L9.45638 5.57858C8.58943 6.78794 7.33917 8.0109 5.50167 9.45706C3.66267 8.00858 2.41395 6.77495 1.5456 5.57676C0.434027 4.0407 0.254778 2.73962 0.792869 1.62921L0.793051 1.62883C1.14589 0.899153 2.21845 0.232904 3.53511 0.613013C4.16312 0.795932 4.71184 1.18824 5.09113 1.72679L5.49992 2.30722L5.90871 1.72679C6.28811 1.1881 6.83702 0.795724 7.46524 0.61287L7.46654 0.612489C8.77663 0.227318 9.85304 0.89726 10.2068 1.62883ZM5.50164 10C5.57825 10 5.65267 9.97422 5.71308 9.92674H5.29021C5.35062 9.97422 5.42503 10 5.50164 10Z" stroke="#F50087"/>
</svg>
