<svg width="22" height="17" viewBox="0 0 22 17" fill="none" xmlns="http://www.w3.org/2000/svg">
<path d="M20.7619 3.62295H1.2381C0.554286 3.62295 0 2.81197 0 1.81148C0 0.810984 0.554286 0 1.2381 0H20.7619C21.4457 0 22 0.810984 22 1.81148C22 2.81197 21.4457 3.62295 20.7619 3.62295Z" fill="#F50087"/>
<path d="M20.7619 17H1.2381C0.554286 17 0 16.189 0 15.1885C0 14.188 0.554286 13.377 1.2381 13.377H20.7619C21.4457 13.377 22 14.188 22 15.1885C22 16.189 21.4457 17 20.7619 17Z" fill="#F50087"/>
<path d="M20.7619 10.1721H1.2381C0.554286 10.1721 0 9.36113 0 8.36064C0 7.36015 0.554286 6.54916 1.2381 6.54916H20.7619C21.4457 6.54916 22 7.36015 22 8.36064C22 9.36113 21.4457 10.1721 20.7619 10.1721Z" fill="#F50087"/>
</svg>
