<svg width="30" height="34" viewBox="0 0 30 34" fill="none" xmlns="http://www.w3.org/2000/svg">
<path d="M4.61539 0H25.3846C27.9327 0 30 1.96505 30 4.3871V30.1613C30 32.2817 28.1923 34 25.9615 34H0.576923C0.259615 34 0 33.7532 0 33.4516V4.3871C0 1.96505 2.06731 0 4.61539 0ZM28.8462 4.3871C28.8462 2.56828 27.2981 1.09677 25.3846 1.09677H4.61539C2.70192 1.09677 1.15384 2.56828 1.15384 4.3871V26.3226H25.9615C27.0865 26.3226 28.1154 26.7613 28.8462 27.4742V4.3871ZM25.9615 32.9032C27.5481 32.9032 28.8462 31.6694 28.8462 30.1613C28.8462 28.6532 27.5481 27.4194 25.9615 27.4194H1.15384V28.5161H25.9615C26.9135 28.5161 27.6923 29.2565 27.6923 30.1613C27.6923 31.0661 26.9135 31.8065 25.9615 31.8065H1.15384V32.9032H25.9615ZM1.15384 29.6129V30.7097H25.9615C26.2788 30.7097 26.5385 30.4629 26.5385 30.1613C26.5385 29.8597 26.2788 29.6129 25.9615 29.6129H1.15384Z" fill="white"/>
<path d="M21.3462 14.2306V21.3871C21.3462 21.6887 21.0865 21.9355 20.7692 21.9355H9.23077C8.91347 21.9355 8.65385 21.6887 8.65385 21.3871V14.2306C6.0577 13.9564 4.03846 11.8634 4.03846 9.32257C4.03846 6.59892 6.36539 4.38709 9.23077 4.38709C9.69231 4.38709 10.1346 4.45107 10.5769 4.56075C11.4904 3.14408 13.125 2.19354 15 2.19354C16.875 2.19354 18.5096 3.14408 19.4231 4.56075C19.8558 4.45107 20.3077 4.38709 20.7692 4.38709C23.6346 4.38709 25.9615 6.59892 25.9615 9.32257C25.9615 11.8634 23.9423 13.9564 21.3462 14.2306ZM20.1923 20.8387V19.7419H9.8077V20.8387H20.1923ZM20.7692 5.48386C20.4808 5.48386 20.2019 5.51128 19.9231 5.57526C20.0962 6.05967 20.1923 6.58064 20.1923 7.12903H19.0385C19.0385 5.0086 17.2308 3.29032 15 3.29032C12.7692 3.29032 10.9615 5.0086 10.9615 7.12903H9.8077C9.8077 6.58064 9.90385 6.05967 10.0769 5.57526C9.79808 5.52042 9.51924 5.48386 9.23077 5.48386C7 5.48386 5.19231 7.20214 5.19231 9.32257C5.19231 11.443 7 13.1613 9.23077 13.1613C9.54808 13.1613 9.8077 13.4081 9.8077 13.7097V18.6452H20.1923V13.7097C20.1923 13.4081 20.4519 13.1613 20.7692 13.1613C23 13.1613 24.8077 11.443 24.8077 9.32257C24.8077 7.20214 23 5.48386 20.7692 5.48386Z" fill="white"/>
<path d="M6.34623 9.32257H7.50007C7.50007 10.2274 8.27892 10.9677 9.23083 10.9677V12.0645C7.6443 12.0645 6.34623 10.8306 6.34623 9.32257Z" fill="white"/>
<path d="M7.5 23.0323H22.5V24.1291H7.5V23.0323Z" fill="white"/>
</svg>
