<svg width="33" height="33" viewBox="0 0 33 33" fill="none" xmlns="http://www.w3.org/2000/svg">
<path d="M8.94218 16.2592C8.94218 15.9371 8.66513 15.675 8.3246 15.675C7.98407 15.675 7.70703 15.9371 7.70703 16.2592C7.70703 17.788 9.49049 19.89 9.6925 20.1247C9.8137 20.2667 9.99263 20.3377 10.1715 20.3377C10.3101 20.3377 10.4486 20.294 10.564 20.2066C10.8295 20.0046 10.8642 19.6334 10.6506 19.3877C9.98686 18.6233 8.94218 17.1 8.94218 16.2592Z" fill="white"/>
<path d="M24.0492 15.675C23.7081 15.675 23.4305 15.9374 23.4305 16.2599C23.4305 17.1017 22.3839 18.6268 21.719 19.3866C21.505 19.638 21.5397 20.0042 21.8057 20.2065C21.9213 20.2939 22.0601 20.3377 22.1989 20.3377C22.3781 20.3377 22.5516 20.2666 22.673 20.1245C22.8754 19.8894 24.6622 17.785 24.6622 16.2545C24.668 15.9374 24.3904 15.675 24.0492 15.675Z" fill="white"/>
<path d="M16.1845 15.675C15.7596 15.675 15.4138 15.9371 15.4138 16.2592V19.7535C15.4138 20.0756 15.7596 20.3377 16.1845 20.3377C16.6095 20.3377 16.9552 20.0756 16.9552 19.7535V16.2592C16.948 15.9371 16.6095 15.675 16.1845 15.675Z" fill="white"/>
<path d="M24.2839 3.10195C23.8355 3.10195 23.3733 3.16452 22.8904 3.25492C21.2691 1.34279 18.8683 0.132935 16.1916 0.132935C13.5148 0.132935 11.114 1.34279 9.4928 3.24796C9.00989 3.15757 8.54076 3.09499 8.09924 3.09499C3.62879 3.10195 0 6.75932 0 11.258C0 14.3383 1.72471 17.1404 4.42906 18.5311L4.41526 29.7396C4.41526 30.5462 4.72571 31.311 5.29141 31.8812C5.85712 32.4513 6.61599 32.7712 7.41625 32.7712H24.9531C26.6088 32.7712 27.9541 31.4153 27.9541 29.7466V18.5172C30.6515 17.1265 32.3694 14.3313 32.3694 11.258C32.3763 6.75932 28.7475 3.10195 24.2839 3.10195ZM24.96 31.2832H7.42315C7.01612 31.2832 6.62979 31.1233 6.34003 30.8313C6.05028 30.5392 5.89161 30.1498 5.89161 29.7396L5.89851 26.8332H26.4915V29.7396C26.4915 30.5879 25.8017 31.2832 24.96 31.2832ZM26.9469 17.3629C26.9055 17.3768 26.871 17.3977 26.8365 17.4186C26.7468 17.4742 26.6709 17.5507 26.6088 17.6411C26.5536 17.7314 26.5122 17.8288 26.4984 17.94C26.4915 17.9818 26.4915 18.0235 26.4915 18.0652V25.3521H5.89851L5.90541 18.0791C5.90541 18.0374 5.90541 17.9957 5.89851 17.954C5.88471 17.8427 5.84332 17.7384 5.78123 17.648C5.72604 17.5646 5.65015 17.4881 5.56047 17.4325C5.52597 17.4116 5.48458 17.3907 5.44319 17.3699C3.02859 16.306 1.46945 13.9072 1.46945 11.258C1.46945 7.5798 4.44285 4.58297 8.09234 4.58297C8.23722 4.58297 8.38899 4.59688 8.53387 4.61079C7.78879 5.91799 7.35416 7.41987 7.35416 9.03301C7.35416 9.44325 7.68531 9.777 8.09234 9.777C8.49937 9.777 8.83052 9.44325 8.83052 9.03301C8.83052 4.94454 12.1351 1.61396 16.1916 1.61396C20.2481 1.61396 23.5457 4.94454 23.5457 9.03301C23.5457 9.44325 23.8769 9.777 24.2839 9.777C24.691 9.777 25.0221 9.44325 25.0221 9.03301C25.0221 7.41987 24.5875 5.91799 23.8424 4.61079C23.9873 4.59688 24.139 4.58297 24.2839 4.58297C27.9334 4.58297 30.9068 7.5798 30.9068 11.258C30.9068 13.9002 29.3546 16.2921 26.9469 17.3629Z" fill="white"/>
</svg>
