<svg width="22" height="22" viewBox="0 0 22 22" fill="none" xmlns="http://www.w3.org/2000/svg">
<path d="M6.07775 10.87C6.07775 10.6528 5.88946 10.4762 5.65802 10.4762C5.42657 10.4762 5.23828 10.6528 5.23828 10.87C5.23828 11.9004 6.45042 13.3173 6.58771 13.4755C6.67009 13.5712 6.7917 13.6191 6.9133 13.6191C7.00745 13.6191 7.1016 13.5896 7.18005 13.5307C7.3605 13.3946 7.38404 13.1443 7.23889 12.9787C6.78777 12.4635 6.07775 11.4367 6.07775 10.87Z" fill="#F50087"/>
<path d="M16.3451 10.4762C16.1132 10.4762 15.9246 10.6531 15.9246 10.8704C15.9246 11.4378 15.2133 12.4658 14.7613 12.978C14.6159 13.1474 14.6395 13.3943 14.8203 13.5306C14.8989 13.5896 14.9932 13.6191 15.0875 13.6191C15.2093 13.6191 15.3272 13.5712 15.4098 13.4754C15.5473 13.3169 16.7617 11.8984 16.7617 10.8668C16.7656 10.6531 16.577 10.4762 16.3451 10.4762Z" fill="#F50087"/>
<path d="M10.9999 10.4762C10.7111 10.4762 10.4761 10.6528 10.4761 10.87V13.2253C10.4761 13.4424 10.7111 13.6191 10.9999 13.6191C11.2887 13.6191 11.5237 13.4424 11.5237 13.2253V10.87C11.5188 10.6528 11.2887 10.4762 10.9999 10.4762Z" fill="#F50087"/>
<path d="M16.5047 2.00128C16.1999 2.00128 15.8858 2.04346 15.5575 2.10439C14.4557 0.815509 12.824 0 11.0047 0C9.18542 0 7.55371 0.815509 6.45183 2.0997C6.12361 2.03877 5.80477 1.99659 5.50469 1.99659C2.46632 2.00128 0 4.46655 0 7.49893C0 9.5752 1.17221 11.464 3.01023 12.4014L3.00085 19.9565C3.00085 20.5002 3.21185 21.0158 3.59633 21.4001C3.98082 21.7844 4.49659 22 5.04049 22H16.9595C18.0848 22 18.9991 21.0861 18.9991 19.9612V12.392C20.8325 11.4546 22 9.57052 22 7.49893C22.0047 4.46655 19.5384 2.00128 16.5047 2.00128ZM16.9642 20.997H5.04518C4.76854 20.997 4.50597 20.8892 4.30904 20.6924C4.1121 20.4955 4.00426 20.2331 4.00426 19.9565L4.00895 17.9974H18.0051V19.9565C18.0051 20.5283 17.5362 20.997 16.9642 20.997ZM18.3146 11.614C18.2864 11.6233 18.263 11.6374 18.2395 11.6515C18.1786 11.689 18.127 11.7405 18.0848 11.8014C18.0473 11.8624 18.0192 11.928 18.0098 12.003C18.0051 12.0311 18.0051 12.0592 18.0051 12.0873V16.9991H4.00895L4.01364 12.0967C4.01364 12.0686 4.01364 12.0405 4.00895 12.0124C3.99957 11.9374 3.97144 11.8671 3.92924 11.8061C3.89173 11.7499 3.84015 11.6983 3.7792 11.6608C3.75575 11.6468 3.72762 11.6327 3.69949 11.6187C2.0584 10.9016 0.998721 9.28462 0.998721 7.49893C0.998721 5.0196 3.01961 2.99957 5.5 2.99957C5.59846 2.99957 5.70162 3.00895 5.80008 3.01832C5.29369 3.89945 4.99829 4.9118 4.99829 5.99915C4.99829 6.27567 5.22336 6.50064 5.5 6.50064C5.77664 6.50064 6.0017 6.27567 6.0017 5.99915C6.0017 3.24329 8.24765 0.998296 11.0047 0.998296C13.7617 0.998296 16.003 3.24329 16.003 5.99915C16.003 6.27567 16.228 6.50064 16.5047 6.50064C16.7813 6.50064 17.0064 6.27567 17.0064 5.99915C17.0064 4.9118 16.711 3.89945 16.2046 3.01832C16.3031 3.00895 16.4062 2.99957 16.5047 2.99957C18.9851 2.99957 21.006 5.0196 21.006 7.49893C21.006 9.27993 19.951 10.8922 18.3146 11.614Z" fill="#F50087"/>
</svg>
