<svg width="32" height="30" viewBox="0 0 32 30" fill="none" xmlns="http://www.w3.org/2000/svg">
<path d="M5.50257 27.5708C6.81127 28.0508 8.19499 28.2866 9.58705 28.2866C11.1041 28.2781 12.6212 28.0171 14.055 27.5118C16.9391 26.5013 19.3314 24.615 20.7985 22.1982C22.2823 19.7561 22.6407 17.0614 21.7988 14.6278C21.7821 14.5773 21.7655 14.5352 21.7404 14.4931C22.1656 14.7962 22.7074 14.8973 23.2159 14.7541L31.1514 10.8636C31.5098 10.6868 31.7933 10.3752 31.9183 9.98784C32.0517 9.60048 32.0183 9.17943 31.8433 8.81733L31.7266 8.58155C31.3681 7.84892 30.5012 7.54577 29.7677 7.87419L22.2906 11.3184C21.5237 11.5373 20.9986 12.2362 20.9986 13.0446C20.9986 13.2468 21.0319 13.4404 21.0986 13.6341L20.9486 13.7352C18.9897 12.7415 14.23 13.5415 9.77877 15.1078C9.52036 15.2004 9.25362 15.293 8.99522 15.3941C8.50341 13.5583 9.77877 12.2194 9.84545 12.1436L9.13692 11.4278C8.65345 11.9583 8.28668 12.5899 8.07829 13.2804C7.82822 14.0888 7.81989 14.9478 8.06162 15.7562C7.2614 16.0762 6.49452 16.413 5.76931 16.7751C5.3692 15.2594 5.32752 13.7015 5.38587 12.5731C5.41088 12.1099 5.24417 11.6636 4.93575 11.3268C4.62733 10.9899 4.19387 10.7963 3.73541 10.7794C3.27695 10.771 2.83516 10.9394 2.51007 11.2678C2.18498 11.5878 2.00159 12.0341 2.00159 12.4889V16.0593C2.00159 16.2109 1.87656 16.3288 1.73485 16.3288C1.39309 16.3288 1.068 16.4636 0.8346 16.7078C0.592865 16.952 0.459495 17.2804 0.46783 17.6172C0.492837 18.4341 0.634544 19.2509 0.892949 20.0256C0.126068 20.8509 -0.149009 21.6003 0.076054 22.2572C0.909621 24.6992 2.8435 26.5855 5.50257 27.5708ZM13.7299 26.5519C11.0625 27.4866 8.26168 27.5118 5.85267 26.6192C4.06884 25.9624 2.66011 24.8592 1.75152 23.4361C2.27667 23.5372 2.81015 23.5877 3.34364 23.5793C3.65205 23.5793 3.97715 23.5708 4.32724 23.5456C6.05273 23.4277 8.12831 23.0066 10.3039 22.3582C10.3456 22.3666 11.5376 21.9709 12.0961 21.7772C13.3548 21.3393 14.5968 20.8256 15.8055 20.2614L15.8305 20.253C17.1392 19.6298 18.3062 18.973 19.2731 18.2993C20.1317 17.7014 20.7818 17.1372 21.2236 16.6067C21.5821 20.6403 18.5312 24.8677 13.7299 26.5519ZM18.9313 16.3878C18.823 17.2972 18.6479 17.4825 18.6396 17.4909L18.6479 17.4993C18.2311 17.7856 17.781 18.072 17.2892 18.3498C17.6143 17.693 17.831 16.9941 17.9311 16.2699C17.9644 16.0172 18.1811 15.832 18.4312 15.832C18.5729 15.832 18.7063 15.8909 18.8063 16.0004C18.9063 16.1015 18.948 16.2446 18.9313 16.3878ZM30.1845 8.79207C30.4262 8.6826 30.718 8.78365 30.8347 9.02786L30.9514 9.26364C31.0097 9.38154 31.018 9.52469 30.9764 9.65101C30.9347 9.77732 30.843 9.88679 30.718 9.94574L24.4996 13.011C24.4912 12.5057 24.2662 12.0257 23.8827 11.7057L30.1845 8.79207ZM22.7491 12.2868C23.0658 12.2868 23.3576 12.4889 23.4576 12.8004C23.5576 13.1036 23.4576 13.4489 23.2075 13.6425L22.9325 13.7773C22.8408 13.8025 22.7491 13.811 22.6574 13.7941L22.7741 13.7183C22.8824 13.6425 22.9658 13.5331 22.9908 13.3983C23.0158 13.2636 22.9908 13.1289 22.9158 13.0194C22.8408 12.9099 22.7241 12.8257 22.599 12.8004C22.4657 12.7752 22.3323 12.8004 22.2239 12.8762L21.9989 13.0278C22.0155 12.6152 22.3406 12.2868 22.7491 12.2868ZM9.11192 17.6593L9.8788 17.0109C9.69541 16.792 9.53703 16.5562 9.38699 16.312C9.62873 16.2193 9.86213 16.1351 10.1039 16.0509C12.838 15.0909 15.5054 14.4762 17.6143 14.3331C18.5979 14.2657 19.4231 14.3078 20.0066 14.4509C20.4818 14.5688 20.7818 14.7457 20.8485 14.9562C20.9236 15.1667 20.7902 15.4951 20.4901 15.8825C20.3151 16.1015 20.1233 16.3036 19.9233 16.4972C20.015 15.672 19.4231 14.9309 18.6062 14.8299C17.7893 14.7288 17.0475 15.3099 16.9391 16.1351C16.689 18.0214 15.5804 19.1246 15.272 19.4025C14.1217 19.9414 12.9463 20.4214 11.746 20.834C11.2375 21.0109 10.729 21.1793 10.2289 21.3309C8.25334 20.9435 6.85295 19.7393 6.0694 17.7435C6.81127 17.373 7.6115 17.0193 8.43673 16.6909C8.63678 17.0278 8.86185 17.3562 9.11192 17.6593ZM1.5348 17.4235C1.58481 17.373 1.65149 17.3393 1.72652 17.3393C2.42671 17.3393 2.99354 16.7667 2.99354 16.0593V12.4889C2.99354 12.1015 3.30196 11.7899 3.6854 11.7899C3.87712 11.7899 4.0605 11.8657 4.18554 12.0089C4.31891 12.152 4.38559 12.3373 4.37726 12.531C4.30224 13.9962 4.37726 16.1604 5.14414 18.1141C5.58593 19.2425 6.20277 20.1604 6.98632 20.8677C7.43645 21.2635 7.93659 21.5919 8.47841 21.8445C7.33642 22.1477 6.16943 22.3582 4.9941 22.5014L4.57731 22.4256C3.46033 22.2403 2.6101 21.5245 2.05161 20.3035C1.6765 19.4614 1.47645 18.5604 1.45144 17.6341C1.45144 17.5414 1.48478 17.4741 1.5348 17.4235ZM1.01798 21.9288C0.951299 21.7266 1.05966 21.4235 1.3264 21.0614C1.61815 21.6256 2.0266 22.1309 2.51007 22.5351C2.29334 22.5182 2.06828 22.4761 1.85989 22.4256C1.38475 22.3161 1.08467 22.1393 1.01798 21.9288Z" fill="white"/>
<path d="M4.494 5.71844C3.88549 5.71844 3.34367 6.08897 3.11028 6.65317C2.87688 7.21737 3.01025 7.87421 3.43537 8.30368C3.86048 8.73315 4.51067 8.86788 5.06916 8.63209C5.62765 8.39631 5.99441 7.84895 5.99441 7.23422C5.99441 6.40054 5.32756 5.71844 4.494 5.71844ZM4.494 7.73947C4.29394 7.73947 4.11055 7.61316 4.03553 7.4279C3.96051 7.24264 4.00219 7.02369 4.1439 6.88054C4.2856 6.73738 4.50233 6.69528 4.68572 6.77106C4.8691 6.84685 4.99413 7.03211 4.99413 7.23422C4.99413 7.51211 4.76907 7.73947 4.494 7.73947Z" fill="white"/>
<path d="M9.49515 3.69743C9.49515 3.0827 9.12838 2.53534 8.56989 2.29955C8.0114 2.06377 7.36122 2.1985 6.9361 2.62797C6.51098 3.05744 6.37761 3.71427 6.61101 4.27847C6.84441 4.84268 7.38623 5.2132 7.99473 5.2132C8.8283 5.2132 9.49515 4.5311 9.49515 3.69743ZM7.49459 3.69743C7.49459 3.49533 7.61962 3.31007 7.80301 3.23428C7.98639 3.15849 8.20312 3.20059 8.34483 3.34375C8.48653 3.48691 8.52821 3.70585 8.45319 3.89111C8.37817 4.07637 8.19478 4.20269 7.99473 4.20269C7.71965 4.20269 7.49459 3.97532 7.49459 3.69743Z" fill="white"/>
<path d="M7.4954 9.25519H6.49512V10.2657H7.4954V9.25519Z" fill="white"/>
<path d="M6.99491 13.8025H5.99463V14.813H6.99491V13.8025Z" fill="white"/>
<path d="M9.99576 18.3498H8.99548V19.3603H9.99576V18.3498Z" fill="white"/>
<path d="M1.99332 8.75H0.993042V9.76051H1.99332V8.75Z" fill="white"/>
<path d="M5.21926 22.3077L5.77775 21.4656C4.5524 20.6403 4.49405 19.8824 4.49405 19.8488C4.49405 19.8572 4.49405 19.8656 4.49405 19.8656H3.49377C3.49377 20.0003 3.54379 21.1793 5.21926 22.3077Z" fill="white"/>
<path d="M10.1543 6.96467C10.3627 6.64467 10.5961 6.34994 10.8545 6.08047L10.1459 5.36469C10.0793 5.43205 8.49548 7.04046 8.49548 8.74991H9.49576C9.49576 8.23623 9.72083 7.61308 10.1543 6.96467Z" fill="white"/>
</svg>
