<svg width="11" height="10" viewBox="0 0 11 10" fill="none" xmlns="http://www.w3.org/2000/svg">
<path fill-rule="evenodd" clip-rule="evenodd" d="M5.46587 2.38522L5.48989 2.38417V0.405965C5.48989 0.0495319 5.94572 -0.133217 6.2209 0.112891L10.8662 4.26734C11.0447 4.42695 11.0447 4.69388 10.8662 4.85349L6.2209 9.00794C5.94572 9.25405 5.48989 9.0713 5.48989 8.71487V6.75206L5.46611 6.75274C5.31312 6.75738 5.16541 6.76445 5.02265 6.77395L4.95712 6.77852L4.89228 6.78343C4.7418 6.79529 4.59695 6.80999 4.45736 6.82756L4.39785 6.83526C3.73691 6.92326 3.19486 7.077 2.72867 7.29925L2.70501 7.31062C2.28704 7.51308 1.92168 7.77015 1.54076 8.13124L1.50324 8.16709L1.4656 8.20362L1.42784 8.24085L1.38993 8.27878L1.35187 8.31742L1.31363 8.35678L1.2752 8.39688L1.25592 8.41721L1.21718 8.45843C1.17187 8.50696 1.1261 8.55704 1.07977 8.60874L1.03992 8.65346L0.999784 8.69898L0.959345 8.74533L0.918589 8.7925L0.898088 8.81639L0.85683 8.86482L0.83607 8.88936L0.794278 8.93907L0.773242 8.96426C0.520072 9.26797 0 9.10023 0 8.71487C0 6.96608 0.351315 5.5081 1.15376 4.4125C2.05661 3.17982 3.48593 2.4775 5.46587 2.38522ZM9.94127 4.5604L6.35472 1.35282V2.77994C6.35472 3.0037 6.16111 3.18509 5.92229 3.18509C3.97829 3.18509 2.6693 3.77537 1.86684 4.87099C1.35815 5.56552 1.05362 6.46101 0.929656 7.52798L0.925889 7.56098L0.951586 7.53673C1.37698 7.13706 1.79709 6.84124 2.28337 6.60271L2.30779 6.5908C3.23078 6.14372 4.36599 5.93574 5.92229 5.93574C6.16111 5.93574 6.35472 6.11713 6.35472 6.34089V7.76799L9.94127 4.5604Z" fill="#F50087"/>
</svg>
