<svg width="45" height="108" viewBox="0 0 45 108" fill="none" xmlns="http://www.w3.org/2000/svg">
<g clip-path="url(#clip0)">
<path d="M15.9832 16.9547V17.5061C15.7774 21.1589 15.0915 24.7428 13.7881 27.9821C12.8963 30.3255 11.7302 32.5309 10.3582 34.5297C8.57469 37.0798 6.37957 39.3542 3.63567 41.3529C2.46951 42.2489 1.30335 43.0759 0 43.7652V0C6.51677 0.137843 13.2393 5.65156 15.2973 12.5437C15.7774 14.06 15.9832 15.5073 15.9832 16.9547Z" fill="white"/>
<path d="M15.2972 91.3899C15.2972 92.8373 15.0229 94.2846 14.5427 95.8009C12.4847 102.348 6.24237 107.518 -0.0686035 108.069V64.3727C1.16615 65.1308 2.26371 65.889 3.36127 66.7849C5.96798 68.8526 8.2317 71.127 9.94664 73.6771C11.3186 75.6758 12.4162 77.9502 13.3079 80.2936C14.4741 83.6018 15.1601 87.1857 15.2287 90.8386L15.2972 91.3899Z" fill="white"/>
<path d="M34.6418 29.3606C34.5732 31.635 34.2302 33.7715 33.4756 35.6324C33.064 36.8041 32.5152 37.8379 31.9665 38.7339C29.6341 42.18 26.9588 45.0057 24.0091 47.1423C21.128 49.21 17.904 50.6573 14.4741 51.4154C12.7591 51.7601 10.9756 51.9668 9.05488 51.9668L8.78049 52.0357L0 51.8979V48.5897C2.19512 47.418 4.25305 46.1085 6.17378 44.6611C9.12348 42.4557 11.6616 39.8366 13.7195 36.873C15.2973 34.5986 16.6006 32.1174 17.6296 29.3606C19.0701 25.7077 19.8247 21.7103 20.0305 17.575V16.8858C20.0305 15.2317 19.8247 13.6465 19.4131 11.9923C22.3628 11.9234 25.1753 12.8194 27.9192 14.7492C32.1037 17.6439 34.7104 23.2955 34.6418 29.3606Z" fill="#162361"/>
<path d="M34.2302 79.3287C34.1616 85.3937 31.5549 90.9764 27.439 93.6643C24.7637 95.4563 21.9512 96.3523 19.2073 96.2833C19.1387 96.2833 18.9329 96.2833 18.7957 96.2833C19.2759 94.6292 19.4817 92.9751 19.4817 91.3899V90.6318C19.3445 86.4965 18.5899 82.568 17.218 78.8462C16.2576 76.1583 14.9543 73.6082 13.3765 71.3338C11.5244 68.3701 8.91768 65.6822 6.03659 63.4078C4.18445 61.9604 2.12652 60.6509 0 59.4793V56.171L8.3689 56.2399H9.05488C10.907 56.3089 12.6905 56.5156 14.4055 56.9292C17.8354 57.7562 21.0595 59.2036 23.9406 61.3401C26.8902 63.5456 29.497 66.3714 31.6921 69.8175C32.3095 70.7824 32.7896 71.8162 33.1326 72.919C33.9558 74.9177 34.2302 77.0542 34.2302 79.3287Z" fill="#162361"/>
<path d="M26.4787 50.5884C24.3521 52.1047 22.157 53.3452 19.6875 54.2412C22.0884 55.2061 24.2835 56.4467 26.4101 58.0319C29.7713 60.5131 32.721 63.7524 35.2591 67.612C36.0137 68.8526 36.6997 70.1621 37.1799 71.6095C37.1799 71.7473 37.2485 71.8851 37.2485 72.0919C41.8445 68.508 44.7942 61.9604 45 54.8615C44.8628 52.0357 44.4512 49.141 43.8338 46.3153C42.6677 42.3867 40.404 39.0096 37.6601 36.8041C37.5915 36.9419 37.5229 37.1487 37.4543 37.2865C36.9055 38.7339 36.2195 40.0434 35.4649 41.2151C32.8582 44.9368 29.8399 48.1072 26.4787 50.5884Z" fill="white"/>
</g>
<defs>
<clipPath id="clip0">
<rect width="45" height="108" fill="white"/>
</clipPath>
</defs>
</svg>
