<svg width="60" height="60" viewBox="0 0 60 60" fill="none" xmlns="http://www.w3.org/2000/svg">
<path d="M59.543 55.4951C58.7595 58.4984 55.6257 60.3264 52.6224 59.4777C49.6191 58.6942 47.7911 55.5604 48.6398 52.5571C49.4233 49.5539 52.5571 47.7258 55.5604 48.5745C58.5636 49.4233 60.3264 52.4918 59.543 55.4951Z" fill="white"/>
<path d="M50.9902 39.63C50.9902 39.63 50.6637 39.2383 50.0762 38.5854C49.9456 38.3895 49.7497 38.259 49.5538 38.0631C49.358 37.8672 49.2274 37.6061 49.0315 37.3449C48.8357 37.0838 48.6398 36.8226 48.3787 36.4962C48.3134 36.4309 48.2481 36.3656 48.1828 36.3003C48.1175 36.235 48.0522 36.1697 48.0522 36.0392C47.9216 35.9086 47.8564 35.7127 47.7258 35.5821C47.5299 35.2557 47.2688 34.9293 47.0729 34.5375C46.877 34.1458 46.6159 33.7541 46.42 33.3623C45.963 32.5789 45.5713 31.6648 45.1142 30.6855C44.9184 30.2285 44.7225 29.7062 44.5266 29.1839C44.4614 28.9227 44.3308 28.6616 44.2655 28.4004C44.2002 28.1393 44.1349 27.8781 44.0043 27.617C43.9391 27.3558 43.8738 27.0947 43.7432 26.8335C43.6779 26.5723 43.5473 26.3112 43.5473 26.05C43.4167 25.4625 43.2862 24.9401 43.1556 24.3525C43.025 23.765 42.9597 23.2426 42.8944 22.6551C42.8291 22.3939 42.8291 22.0675 42.7639 21.8063C42.7639 21.5451 42.6986 21.2187 42.6986 20.9576C42.6986 20.6964 42.6333 20.37 42.6333 20.1088C42.6333 19.8477 42.568 19.5212 42.568 19.2601C42.568 18.6725 42.568 18.1502 42.568 17.5626C42.568 17.3014 42.568 16.975 42.568 16.7138C42.568 16.4527 42.6333 16.1915 42.6333 15.8651C42.6986 15.3428 42.6986 14.7552 42.7639 14.2981C42.8291 13.7758 42.8944 13.2535 42.9597 12.7965C43.025 12.2742 43.1556 11.8172 43.2209 11.3602C43.2862 10.9031 43.4167 10.4461 43.482 10.0544C43.6126 9.66267 43.6779 9.27094 43.8085 8.87921C43.939 8.48748 44.0043 8.16104 44.0696 7.83459C44.1349 7.50815 44.2655 7.247 44.3308 6.98584C44.8531 6.00652 45.049 5.41892 45.049 5.41892L45.1795 5.09248C46.6159 1.10989 50.9902 -0.914045 54.9075 0.45701C58.8901 1.89335 60.914 6.26767 59.543 10.185C59.1512 11.3602 58.4331 12.4048 57.5843 13.1882C57.5843 13.1882 57.3232 13.4494 56.8009 13.9064C56.6703 14.037 56.5397 14.1676 56.4091 14.2981C56.2785 14.4287 56.0827 14.6246 55.9521 14.8204C55.7562 15.0163 55.6257 15.2122 55.4298 15.408C55.2339 15.6039 55.1034 15.8651 54.9075 16.0609C54.7116 16.3221 54.5158 16.5179 54.3199 16.8444C54.124 17.1055 53.9282 17.432 53.7323 17.6931C53.5364 17.9543 53.3406 18.2807 53.1447 18.6072C53.0794 18.803 52.9488 18.9336 52.8183 19.1295C52.6877 19.3253 52.6224 19.4559 52.5571 19.6518C52.3612 20.0435 52.1654 20.37 52.0348 20.7617C51.9042 20.9576 51.8389 21.1534 51.7737 21.3493C51.7084 21.5451 51.6431 21.741 51.5125 21.9369C51.4472 22.1327 51.3166 22.3286 51.2513 22.5245C51.1861 22.7203 51.1208 22.9162 51.0555 23.1774C50.9249 23.5691 50.7943 24.0261 50.6637 24.4831C50.5332 24.9401 50.4679 25.3319 50.3373 25.7889C50.272 25.9848 50.272 26.2459 50.2067 26.4418C50.1414 26.6376 50.1414 26.8988 50.0762 27.0947C50.0109 27.2905 50.0109 27.5517 49.9456 27.7475C49.9456 27.9434 49.8803 28.2046 49.8803 28.4004C49.815 28.8574 49.815 29.3145 49.7497 29.7062C49.7497 30.5549 49.6844 31.469 49.7497 32.2524C49.7497 32.6442 49.815 33.1012 49.815 33.4929C49.8803 33.8846 49.8803 34.2764 49.9456 34.6028C49.9456 34.7987 50.0109 34.9945 50.0109 35.1251C50.0109 35.1904 50.0109 35.321 50.0762 35.3863C50.0762 35.4516 50.0762 35.5821 50.1414 35.6474C50.2067 35.9739 50.272 36.3003 50.3373 36.5615C50.4026 36.8879 50.4679 37.1491 50.5332 37.4102C50.5985 37.6714 50.6637 37.9325 50.729 38.1284C50.8596 39.1077 50.9902 39.63 50.9902 39.63Z" fill="white"/>
<path d="M39.0424 39.0424L16.3873 26.7682C12.6659 24.7443 11.2296 20.1088 13.2535 16.3221C15.2774 12.5353 19.9129 11.1643 23.6996 13.1882C25.0707 13.9064 26.1153 15.0163 26.8335 16.3221L39.0424 39.0424Z" fill="white"/>
<path d="M39.63 50.9902C39.63 50.9902 39.1077 50.8596 38.2589 50.5985C38.0631 50.5332 37.8019 50.4679 37.5408 50.4026C37.2796 50.3373 37.0185 50.272 36.692 50.2067C36.3656 50.1414 36.1044 50.0762 35.778 50.0109C35.7127 50.0109 35.5821 50.0109 35.5168 49.9456C35.4516 49.9456 35.321 49.9456 35.2557 49.8803C35.0598 49.8803 34.9292 49.815 34.7334 49.815C34.3416 49.7497 34.0152 49.7497 33.6235 49.6844C33.2317 49.6844 32.84 49.6191 32.383 49.6191C31.5342 49.5538 30.6855 49.6191 29.8368 49.6191C29.3797 49.6191 28.9227 49.6844 28.531 49.7497C28.3351 49.7497 28.074 49.815 27.8781 49.815C27.6822 49.8803 27.4211 49.8803 27.2252 49.9456C27.0294 50.0109 26.7682 50.0109 26.5723 50.0762C26.3765 50.1414 26.1153 50.1414 25.9195 50.2067C25.4624 50.3373 25.0707 50.4026 24.6137 50.5332C24.1567 50.6638 23.7649 50.7943 23.3079 50.9249C23.1121 50.9902 22.9162 51.0555 22.655 51.1208C22.4592 51.1861 22.2633 51.3166 22.0674 51.3819C21.8716 51.4472 21.6757 51.5125 21.4798 51.6431C21.284 51.7084 21.0881 51.7737 20.8922 51.9042C20.5005 52.1001 20.1741 52.296 19.7823 52.4265C19.5865 52.4918 19.4559 52.6224 19.26 52.6877C19.0642 52.8183 18.9336 52.8836 18.7377 53.0141C18.4113 53.21 18.0848 53.4059 17.8237 53.6017C17.5625 53.7976 17.2361 53.9935 16.9749 54.1893C16.7138 54.3852 16.4526 54.5811 16.1915 54.7769C15.9303 54.9728 15.7345 55.1686 15.5386 55.2992C15.3427 55.4951 15.1469 55.691 14.951 55.8215C14.7551 56.0174 14.6246 56.148 14.4287 56.2785C14.2981 56.4091 14.1675 56.605 14.037 56.6703C13.58 57.1926 13.3188 57.4537 13.3188 57.4537C10.4461 60.5223 5.61477 60.7182 2.54622 57.8455C-0.522334 54.9728 -0.718199 50.1414 2.15449 47.0729C3.00324 46.1589 4.04785 45.506 5.15775 45.1142L5.41891 45.049C5.41891 45.049 6.0065 44.8531 7.05112 44.4614C7.31227 44.3961 7.57342 44.2655 7.89986 44.2002C8.22631 44.1349 8.55275 44.0043 8.94448 43.9391C9.33621 43.8085 9.72794 43.7432 10.1197 43.6126C10.5114 43.5473 10.9684 43.4167 11.4254 43.3515C11.8825 43.2862 12.3395 43.1556 12.8618 43.0903C13.3188 43.025 13.8411 42.9597 14.3634 42.8944C14.8857 42.8291 15.408 42.7639 15.9303 42.7639C16.1915 42.7639 16.4526 42.6986 16.7791 42.6986C17.0402 42.6986 17.3014 42.6333 17.6278 42.6986C18.2154 42.6986 18.7377 42.6986 19.3253 42.6986C19.5865 42.6986 19.9129 42.6986 20.1741 42.7639C20.4352 42.7639 20.7617 42.8291 21.0228 42.8291C21.284 42.8291 21.6104 42.8944 21.8716 42.8944C22.1327 42.9597 22.4592 42.9597 22.7203 43.025C23.3079 43.0903 23.8302 43.1556 24.4178 43.2862C25.0054 43.4167 25.5277 43.5473 26.1153 43.6779C26.3765 43.7432 26.6376 43.8085 26.8988 43.8738C27.1599 43.939 27.4211 44.0043 27.6822 44.1349C27.9434 44.2002 28.2045 44.2655 28.4657 44.3961C28.7268 44.4614 28.988 44.5919 29.2492 44.6572C29.7715 44.8531 30.2285 45.049 30.7508 45.2448C31.6648 45.7018 32.5789 46.0936 33.4276 46.5506C33.8193 46.7465 34.2111 47.0076 34.6028 47.2035C34.9945 47.4646 35.321 47.6605 35.6474 47.8564C35.8433 47.9869 35.9739 48.0522 36.1044 48.1828C36.1697 48.2481 36.235 48.3134 36.3656 48.3134C36.4309 48.3787 36.4962 48.4439 36.5615 48.5092C36.8226 48.7051 37.149 48.9663 37.4102 49.1621C37.6714 49.358 37.8672 49.5538 38.1284 49.6844C38.3242 49.8803 38.5201 50.0109 38.6507 50.2067C39.2383 50.6638 39.63 50.9902 39.63 50.9902Z" fill="white"/>
</svg>
