<svg width="44" height="108" viewBox="0 0 44 108" fill="none" xmlns="http://www.w3.org/2000/svg">
<g clip-path="url(#clip0)">
<path d="M29.0168 16.9547V17.5061C29.2226 21.1589 29.9085 24.7428 31.2119 27.9821C32.1037 30.3255 33.2698 32.5309 34.6418 34.5297C36.4253 37.0798 38.6204 39.3542 41.3643 41.3529C42.5305 42.2489 43.6966 43.0759 45 43.7652V0C38.4832 0.137843 31.7607 5.65156 29.7027 12.5437C29.2226 14.06 29.0168 15.5073 29.0168 16.9547Z" fill="white"/>
<path d="M29.7028 91.3899C29.7028 92.8373 29.9771 94.2846 30.4573 95.8009C32.5153 102.348 38.7576 107.518 45.0686 108.069V64.3727C43.8338 65.1308 42.7363 65.889 41.6387 66.7849C39.032 68.8526 36.7683 71.127 35.0534 73.6771C33.6814 75.6758 32.5838 77.9502 31.6921 80.2936C30.5259 83.6018 29.8399 87.1857 29.7713 90.8386L29.7028 91.3899Z" fill="white"/>
<path d="M10.3582 29.3606C10.4268 31.635 10.7698 33.7715 11.5244 35.6324C11.936 36.8041 12.4848 37.8379 13.0335 38.7339C15.3659 42.18 18.0412 45.0057 20.9909 47.1423C23.872 49.21 27.096 50.6573 30.5259 51.4154C32.2409 51.7601 34.0244 51.9668 35.9451 51.9668L36.2195 52.0357L45 51.8979V48.5897C42.8049 47.418 40.747 46.1085 38.8262 44.6611C35.8765 42.4557 33.3384 39.8366 31.2805 36.873C29.7027 34.5986 28.3994 32.1174 27.3704 29.3606C25.9299 25.7077 25.1753 21.7103 24.9695 17.575V16.8858C24.9695 15.2317 25.1753 13.6465 25.5869 11.9923C22.6372 11.9234 19.8247 12.8194 17.0808 14.7492C12.8963 17.6439 10.2896 23.2955 10.3582 29.3606Z" fill="#162361"/>
<path d="M10.7698 79.3287C10.8384 85.3937 13.4451 90.9764 17.561 93.6643C20.2363 95.4563 23.0488 96.3523 25.7927 96.2833C25.8613 96.2833 26.0671 96.2833 26.2043 96.2833C25.7241 94.6292 25.5183 92.9751 25.5183 91.3899V90.6318C25.6555 86.4965 26.4101 82.568 27.782 78.8462C28.7424 76.1583 30.0457 73.6082 31.6235 71.3338C33.4756 68.3701 36.0823 65.6822 38.9634 63.4078C40.8155 61.9604 42.8735 60.6509 45 59.4793V56.171L36.6311 56.2399H35.9451C34.093 56.3089 32.3095 56.5156 30.5945 56.9292C27.1646 57.7562 23.9405 59.2036 21.0594 61.3401C18.1098 63.5456 15.503 66.3714 13.3079 69.8175C12.6905 70.7824 12.2104 71.8162 11.8674 72.919C11.0442 74.9177 10.7698 77.0542 10.7698 79.3287Z" fill="#162361"/>
<path d="M18.5213 50.5884C20.6479 52.1047 22.843 53.3452 25.3125 54.2412C22.9116 55.2061 20.7165 56.4467 18.5899 58.0319C15.2287 60.5131 12.279 63.7524 9.74085 67.612C8.98628 68.8526 8.3003 70.1621 7.82012 71.6095C7.82012 71.7473 7.75153 71.8851 7.75153 72.0919C3.15549 68.508 0.205794 61.9604 1.51643e-06 54.8615C0.137197 52.0357 0.54878 49.141 1.16616 46.3153C2.33232 42.3867 4.59604 39.0096 7.33994 36.8041C7.40854 36.9419 7.47714 37.1487 7.54573 37.2865C8.09451 38.7339 8.78049 40.0434 9.53506 41.2151C12.1418 44.9368 15.1601 48.1072 18.5213 50.5884Z" fill="white"/>
</g>
<defs>
<clipPath id="clip0">
<rect width="45" height="108" fill="white" transform="matrix(-1 0 0 1 45 0)"/>
</clipPath>
</defs>
</svg>
