<svg width="60" height="60" viewBox="0 0 60 60" fill="none" xmlns="http://www.w3.org/2000/svg">
<path d="M0.457073 55.4951C1.24053 58.4984 4.37437 60.3264 7.37764 59.4777C10.3809 58.6942 12.209 55.5604 11.3602 52.5571C10.5768 49.5539 7.44292 47.7258 4.43966 48.5745C1.4364 49.4233 -0.326387 52.4918 0.457073 55.4951Z" fill="white"/>
<path d="M9.00981 39.63C9.00981 39.63 9.33625 39.2383 9.92385 38.5854C10.0544 38.3895 10.2503 38.259 10.4462 38.0631C10.642 37.8672 10.7726 37.6061 10.9685 37.3449C11.1643 37.0838 11.3602 36.8226 11.6213 36.4962C11.6866 36.4309 11.7519 36.3656 11.8172 36.3003C11.8825 36.235 11.9478 36.1697 11.9478 36.0392C12.0784 35.9086 12.1436 35.7127 12.2742 35.5821C12.4701 35.2557 12.7312 34.9293 12.9271 34.5375C13.123 34.1458 13.3841 33.7541 13.58 33.3623C14.037 32.5789 14.4287 31.6648 14.8858 30.6855C15.0816 30.2285 15.2775 29.7062 15.4734 29.1839C15.5386 28.9227 15.6692 28.6616 15.7345 28.4004C15.7998 28.1393 15.8651 27.8781 15.9957 27.617C16.0609 27.3558 16.1262 27.0947 16.2568 26.8335C16.3221 26.5723 16.4527 26.3112 16.4527 26.05C16.5833 25.4625 16.7138 24.9401 16.8444 24.3525C16.975 23.765 17.0403 23.2426 17.1056 22.6551C17.1709 22.3939 17.1709 22.0675 17.2361 21.8063C17.2361 21.5451 17.3014 21.2187 17.3014 20.9576C17.3014 20.6964 17.3667 20.37 17.3667 20.1088C17.3667 19.8477 17.432 19.5212 17.432 19.2601C17.432 18.6725 17.432 18.1502 17.432 17.5626C17.432 17.3014 17.432 16.975 17.432 16.7138C17.432 16.4527 17.3667 16.1915 17.3667 15.8651C17.3014 15.3428 17.3014 14.7552 17.2361 14.2981C17.1709 13.7758 17.1056 13.2535 17.0403 12.7965C16.975 12.2742 16.8444 11.8172 16.7791 11.3602C16.7138 10.9031 16.5833 10.4461 16.518 10.0544C16.3874 9.66267 16.3221 9.27094 16.1915 8.87921C16.061 8.48748 15.9957 8.16104 15.9304 7.83459C15.8651 7.50815 15.7345 7.247 15.6692 6.98584C15.1469 6.00652 14.951 5.41892 14.951 5.41892L14.8205 5.09248C13.3841 1.10989 9.00981 -0.914045 5.09251 0.45701C1.10992 1.89335 -0.914019 6.26767 0.457037 10.185C0.848766 11.3602 1.56694 12.4048 2.41569 13.1882C2.41569 13.1882 2.67684 13.4494 3.19915 13.9064C3.32972 14.037 3.4603 14.1676 3.59087 14.2981C3.72145 14.4287 3.91732 14.6246 4.0479 14.8204C4.24376 15.0163 4.37433 15.2122 4.5702 15.408C4.76606 15.6039 4.89664 15.8651 5.09251 16.0609C5.28837 16.3221 5.48424 16.5179 5.6801 16.8444C5.87597 17.1055 6.07183 17.432 6.2677 17.6931C6.46356 17.9543 6.65943 18.2807 6.85529 18.6072C6.92058 18.803 7.05116 18.9336 7.18173 19.1295C7.31231 19.3253 7.3776 19.4559 7.44289 19.6518C7.63875 20.0435 7.83462 20.37 7.9652 20.7617C8.09577 20.9576 8.16106 21.1534 8.22635 21.3493C8.29163 21.5451 8.35692 21.741 8.4875 21.9369C8.55279 22.1327 8.68337 22.3286 8.74865 22.5245C8.81394 22.7203 8.87923 22.9162 8.94452 23.1774C9.0751 23.5691 9.20567 24.0261 9.33625 24.4831C9.46683 24.9401 9.53212 25.3319 9.66269 25.7889C9.72798 25.9848 9.72798 26.2459 9.79327 26.4418C9.85856 26.6376 9.85856 26.8988 9.92385 27.0947C9.98914 27.2905 9.98913 27.5517 10.0544 27.7475C10.0544 27.9434 10.1197 28.2046 10.1197 28.4004C10.185 28.8574 10.185 29.3145 10.2503 29.7062C10.2503 30.5549 10.3156 31.469 10.2503 32.2524C10.2503 32.6442 10.185 33.1012 10.185 33.4929C10.1197 33.8846 10.1197 34.2764 10.0544 34.6028C10.0544 34.7987 9.98913 34.9945 9.98913 35.1251C9.98913 35.1904 9.98914 35.321 9.92385 35.3863C9.92385 35.4516 9.92384 35.5821 9.85855 35.6474C9.79327 35.9739 9.72798 36.3003 9.66269 36.5615C9.5974 36.8879 9.53211 37.1491 9.46683 37.4102C9.40154 37.6714 9.33625 37.9325 9.27096 38.1284C9.14039 39.1077 9.00981 39.63 9.00981 39.63Z" fill="white"/>
<path d="M20.9576 39.0424L43.6127 26.7682C47.3341 24.7443 48.7704 20.1088 46.7465 16.3221C44.7226 12.5353 40.0871 11.1643 36.3004 13.1882C34.9293 13.9064 33.8847 15.0163 33.1665 16.3221L20.9576 39.0424Z" fill="white"/>
<path d="M20.37 50.9902C20.37 50.9902 20.8923 50.8596 21.7411 50.5985C21.9369 50.5332 22.1981 50.4679 22.4592 50.4026C22.7204 50.3373 22.9815 50.272 23.308 50.2067C23.6344 50.1414 23.8956 50.0762 24.222 50.0109C24.2873 50.0109 24.4179 50.0109 24.4832 49.9456C24.5484 49.9456 24.679 49.9456 24.7443 49.8803C24.9402 49.8803 25.0708 49.815 25.2666 49.815C25.6584 49.7497 25.9848 49.7497 26.3765 49.6844C26.7683 49.6844 27.16 49.6191 27.617 49.6191C28.4658 49.5538 29.3145 49.6191 30.1632 49.6191C30.6203 49.6191 31.0773 49.6844 31.469 49.7497C31.6649 49.7497 31.926 49.815 32.1219 49.815C32.3178 49.8803 32.5789 49.8803 32.7748 49.9456C32.9706 50.0109 33.2318 50.0109 33.4277 50.0762C33.6235 50.1414 33.8847 50.1414 34.0805 50.2067C34.5376 50.3373 34.9293 50.4026 35.3863 50.5332C35.8433 50.6638 36.2351 50.7943 36.6921 50.9249C36.8879 50.9902 37.0838 51.0555 37.345 51.1208C37.5408 51.1861 37.7367 51.3166 37.9326 51.3819C38.1284 51.4472 38.3243 51.5125 38.5202 51.6431C38.716 51.7084 38.9119 51.7737 39.1078 51.9042C39.4995 52.1001 39.8259 52.296 40.2177 52.4265C40.4135 52.4918 40.5441 52.6224 40.74 52.6877C40.9358 52.8183 41.0664 52.8836 41.2623 53.0141C41.5887 53.21 41.9152 53.4059 42.1763 53.6017C42.4375 53.7976 42.7639 53.9935 43.0251 54.1893C43.2862 54.3852 43.5474 54.5811 43.8085 54.7769C44.0697 54.9728 44.2655 55.1686 44.4614 55.2992C44.6573 55.4951 44.8531 55.691 45.049 55.8215C45.2449 56.0174 45.3754 56.148 45.5713 56.2785C45.7019 56.4091 45.8325 56.605 45.963 56.6703C46.42 57.1926 46.6812 57.4537 46.6812 57.4537C49.5539 60.5223 54.3852 60.7182 57.4538 57.8455C60.5223 54.9728 60.7182 50.1414 57.8455 47.0729C56.9968 46.1589 55.9521 45.506 54.8422 45.1142L54.5811 45.049C54.5811 45.049 53.9935 44.8531 52.9489 44.4614C52.6877 44.3961 52.4266 44.2655 52.1001 44.2002C51.7737 44.1349 51.4473 44.0043 51.0555 43.9391C50.6638 43.8085 50.2721 43.7432 49.8803 43.6126C49.4886 43.5473 49.0316 43.4167 48.5746 43.3515C48.1175 43.2862 47.6605 43.1556 47.1382 43.0903C46.6812 43.025 46.1589 42.9597 45.6366 42.8944C45.1143 42.8291 44.592 42.7639 44.0697 42.7639C43.8085 42.7639 43.5474 42.6986 43.2209 42.6986C42.9598 42.6986 42.6986 42.6333 42.3722 42.6986C41.7846 42.6986 41.2623 42.6986 40.6747 42.6986C40.4135 42.6986 40.0871 42.6986 39.8259 42.7639C39.5648 42.7639 39.2383 42.8291 38.9772 42.8291C38.716 42.8291 38.3896 42.8944 38.1284 42.8944C37.8673 42.9597 37.5408 42.9597 37.2797 43.025C36.6921 43.0903 36.1698 43.1556 35.5822 43.2862C34.9946 43.4167 34.4723 43.5473 33.8847 43.6779C33.6235 43.7432 33.3624 43.8085 33.1012 43.8738C32.8401 43.939 32.5789 44.0043 32.3178 44.1349C32.0566 44.2002 31.7955 44.2655 31.5343 44.3961C31.2732 44.4614 31.012 44.5919 30.7508 44.6572C30.2285 44.8531 29.7715 45.049 29.2492 45.2448C28.3352 45.7018 27.4211 46.0936 26.5724 46.5506C26.1807 46.7465 25.7889 47.0076 25.3972 47.2035C25.0055 47.4646 24.679 47.6605 24.3526 47.8564C24.1567 47.9869 24.0261 48.0522 23.8956 48.1828C23.8303 48.2481 23.765 48.3134 23.6344 48.3134C23.5691 48.3787 23.5038 48.4439 23.4385 48.5092C23.1774 48.7051 22.851 48.9663 22.5898 49.1621C22.3286 49.358 22.1328 49.5538 21.8716 49.6844C21.6758 49.8803 21.4799 50.0109 21.3493 50.2067C20.7617 50.6638 20.37 50.9902 20.37 50.9902Z" fill="white"/>
</svg>
