<svg width="60" height="60" viewBox="0 0 60 60" fill="none" xmlns="http://www.w3.org/2000/svg">
<path d="M59.543 4.5049C58.7595 1.50164 55.6257 -0.326433 52.6224 0.522315C49.6191 1.30578 47.7911 4.43962 48.6398 7.44288C49.4233 10.4461 52.5571 12.2742 55.5604 11.4255C58.5636 10.5767 60.3264 7.50817 59.543 4.5049Z" fill="white"/>
<path d="M50.9902 20.37C50.9902 20.37 50.6637 20.7617 50.0762 21.4146C49.9456 21.6104 49.7497 21.741 49.5538 21.9369C49.358 22.1327 49.2274 22.3939 49.0315 22.6551C48.8357 22.9162 48.6398 23.1774 48.3787 23.5038C48.3134 23.5691 48.2481 23.6344 48.1828 23.6997C48.1175 23.765 48.0522 23.8302 48.0522 23.9608C47.9216 24.0914 47.8564 24.2873 47.7258 24.4178C47.5299 24.7443 47.2688 25.0707 47.0729 25.4625C46.877 25.8542 46.6159 26.2459 46.42 26.6376C45.963 27.4211 45.5713 28.3351 45.1142 29.3145C44.9184 29.7715 44.7225 30.2938 44.5266 30.8161C44.4614 31.0773 44.3308 31.3384 44.2655 31.5996C44.2002 31.8607 44.1349 32.1219 44.0043 32.383C43.9391 32.6442 43.8738 32.9053 43.7432 33.1665C43.6779 33.4276 43.5473 33.6888 43.5473 33.9499C43.4167 34.5375 43.2862 35.0598 43.1556 35.6474C43.025 36.235 42.9597 36.7573 42.8944 37.3449C42.8291 37.6061 42.8291 37.9325 42.7639 38.1937C42.7639 38.4548 42.6986 38.7813 42.6986 39.0424C42.6986 39.3036 42.6333 39.63 42.6333 39.8912C42.6333 40.1523 42.568 40.4788 42.568 40.7399C42.568 41.3275 42.568 41.8498 42.568 42.4374C42.568 42.6986 42.568 43.025 42.568 43.2862C42.568 43.5473 42.6333 43.8085 42.6333 44.1349C42.6986 44.6572 42.6986 45.2448 42.7639 45.7018C42.8291 46.2242 42.8944 46.7465 42.9597 47.2035C43.025 47.7258 43.1556 48.1828 43.2209 48.6398C43.2862 49.0968 43.4167 49.5539 43.482 49.9456C43.6126 50.3373 43.6779 50.729 43.8085 51.1208C43.939 51.5125 44.0043 51.8389 44.0696 52.1654C44.1349 52.4918 44.2655 52.753 44.3308 53.0141C44.8531 53.9935 45.049 54.5811 45.049 54.5811L45.1795 54.9075C46.6159 58.8901 50.9902 60.914 54.9075 59.543C58.8901 58.1066 60.914 53.7323 59.543 49.815C59.1512 48.6398 58.4331 47.5952 57.5843 46.8117C57.5843 46.8117 57.3232 46.5506 56.8009 46.0936C56.6703 45.963 56.5397 45.8324 56.4091 45.7018C56.2785 45.5713 56.0827 45.3754 55.9521 45.1795C55.7562 44.9837 55.6257 44.7878 55.4298 44.5919C55.2339 44.3961 55.1034 44.1349 54.9075 43.9391C54.7116 43.6779 54.5158 43.482 54.3199 43.1556C54.124 42.8944 53.9282 42.568 53.7323 42.3069C53.5364 42.0457 53.3406 41.7193 53.1447 41.3928C53.0794 41.1969 52.9488 41.0664 52.8183 40.8705C52.6877 40.6746 52.6224 40.5441 52.5571 40.3482C52.3612 39.9565 52.1654 39.63 52.0348 39.2383C51.9042 39.0424 51.8389 38.8466 51.7737 38.6507C51.7084 38.4548 51.6431 38.259 51.5125 38.0631C51.4472 37.8672 51.3166 37.6714 51.2513 37.4755C51.1861 37.2796 51.1208 37.0838 51.0555 36.8226C50.9249 36.4309 50.7943 35.9739 50.6637 35.5169C50.5332 35.0598 50.4679 34.6681 50.3373 34.2111C50.272 34.0152 50.272 33.7541 50.2067 33.5582C50.1414 33.3623 50.1414 33.1012 50.0762 32.9053C50.0109 32.7095 50.0109 32.4483 49.9456 32.2524C49.9456 32.0566 49.8803 31.7954 49.8803 31.5996C49.815 31.1425 49.815 30.6855 49.7497 30.2938C49.7497 29.445 49.6844 28.531 49.7497 27.7475C49.7497 27.3558 49.815 26.8988 49.815 26.5071C49.8803 26.1153 49.8803 25.7236 49.9456 25.3972C49.9456 25.2013 50.0109 25.0054 50.0109 24.8749C50.0109 24.8096 50.0109 24.679 50.0762 24.6137C50.0762 24.5484 50.0762 24.4178 50.1414 24.3526C50.2067 24.0261 50.272 23.6997 50.3373 23.4385C50.4026 23.1121 50.4679 22.8509 50.5332 22.5898C50.5985 22.3286 50.6637 22.0675 50.729 21.8716C50.8596 20.8923 50.9902 20.37 50.9902 20.37Z" fill="white"/>
<path d="M39.0424 20.9576L16.3873 33.2318C12.6659 35.2557 11.2296 39.8912 13.2535 43.6779C15.2774 47.4646 19.9129 48.8357 23.6996 46.8117C25.0707 46.0936 26.1153 44.9837 26.8335 43.6779L39.0424 20.9576Z" fill="white"/>
<path d="M39.63 9.00978C39.63 9.00978 39.1077 9.14035 38.2589 9.40151C38.0631 9.4668 37.8019 9.53209 37.5408 9.59737C37.2796 9.66266 37.0185 9.72795 36.692 9.79324C36.3656 9.85852 36.1044 9.92382 35.778 9.9891C35.7127 9.9891 35.5821 9.9891 35.5168 10.0544C35.4516 10.0544 35.321 10.0544 35.2557 10.1197C35.0598 10.1197 34.9292 10.185 34.7334 10.185C34.3416 10.2503 34.0152 10.2503 33.6235 10.3155C33.2317 10.3155 32.84 10.3808 32.383 10.3808C31.5342 10.4461 30.6855 10.3808 29.8368 10.3808C29.3797 10.3808 28.9227 10.3155 28.531 10.2503C28.3351 10.2503 28.074 10.185 27.8781 10.185C27.6822 10.1197 27.4211 10.1197 27.2252 10.0544C27.0294 9.9891 26.7682 9.9891 26.5723 9.92382C26.3765 9.85853 26.1153 9.85852 25.9195 9.79324C25.4624 9.66266 25.0707 9.59737 24.6137 9.46679C24.1567 9.33622 23.7649 9.20564 23.3079 9.07507C23.1121 9.00978 22.9162 8.94449 22.655 8.8792C22.4592 8.81391 22.2633 8.68334 22.0674 8.61805C21.8716 8.55276 21.6757 8.48747 21.4798 8.35689C21.284 8.29161 21.0881 8.22632 20.8922 8.09574C20.5005 7.89988 20.1741 7.70401 19.7823 7.57343C19.5865 7.50814 19.4559 7.37757 19.26 7.31228C19.0642 7.18171 18.9336 7.11642 18.7377 6.98584C18.4113 6.78998 18.0848 6.59411 17.8237 6.39824C17.5625 6.20238 17.2361 6.00651 16.9749 5.81065C16.7138 5.61478 16.4526 5.41892 16.1915 5.22305C15.9303 5.02719 15.7345 4.83132 15.5386 4.70075C15.3427 4.50488 15.1469 4.30902 14.951 4.17844C14.7551 3.98257 14.6246 3.852 14.4287 3.72142C14.2981 3.59085 14.1675 3.39498 14.037 3.32969C13.58 2.80738 13.3188 2.54623 13.3188 2.54623C10.4461 -0.522324 5.61477 -0.718187 2.54622 2.1545C-0.522334 5.02719 -0.718199 9.85853 2.15449 12.9271C3.00324 13.8411 4.04785 14.494 5.15775 14.8857L5.41891 14.951C5.41891 14.951 6.0065 15.1469 7.05112 15.5386C7.31227 15.6039 7.57342 15.7345 7.89986 15.7998C8.22631 15.8651 8.55275 15.9956 8.94448 16.0609C9.33621 16.1915 9.72794 16.2568 10.1197 16.3874C10.5114 16.4526 10.9684 16.5832 11.4254 16.6485C11.8825 16.7138 12.3395 16.8444 12.8618 16.9097C13.3188 16.975 13.8411 17.0402 14.3634 17.1055C14.8857 17.1708 15.408 17.2361 15.9303 17.2361C16.1915 17.2361 16.4526 17.3014 16.7791 17.3014C17.0402 17.3014 17.3014 17.3667 17.6278 17.3014C18.2154 17.3014 18.7377 17.3014 19.3253 17.3014C19.5865 17.3014 19.9129 17.3014 20.1741 17.2361C20.4352 17.2361 20.7617 17.1708 21.0228 17.1708C21.284 17.1708 21.6104 17.1055 21.8716 17.1055C22.1327 17.0402 22.4592 17.0402 22.7203 16.975C23.3079 16.9097 23.8302 16.8444 24.4178 16.7138C25.0054 16.5832 25.5277 16.4526 26.1153 16.3221C26.3765 16.2568 26.6376 16.1915 26.8988 16.1262C27.1599 16.0609 27.4211 15.9956 27.6822 15.8651C27.9434 15.7998 28.2045 15.7345 28.4657 15.6039C28.7268 15.5386 28.988 15.408 29.2492 15.3427C29.7715 15.1469 30.2285 14.951 30.7508 14.7551C31.6648 14.2981 32.5789 13.9064 33.4276 13.4494C33.8193 13.2535 34.2111 12.9924 34.6028 12.7965C34.9945 12.5353 35.321 12.3395 35.6474 12.1436C35.8433 12.013 35.9739 11.9478 36.1044 11.8172C36.1697 11.7519 36.235 11.6866 36.3656 11.6866C36.4309 11.6213 36.4962 11.556 36.5615 11.4907C36.8226 11.2949 37.149 11.0337 37.4102 10.8378C37.6714 10.642 37.8672 10.4461 38.1284 10.3155C38.3242 10.1197 38.5201 9.9891 38.6507 9.79324C39.2383 9.33622 39.63 9.00978 39.63 9.00978Z" fill="white"/>
</svg>
