<svg width="60" height="60" viewBox="0 0 60 60" fill="none" xmlns="http://www.w3.org/2000/svg">
<path d="M0.457073 4.5049C1.24053 1.50164 4.37437 -0.326433 7.37764 0.522315C10.3809 1.30578 12.209 4.43962 11.3602 7.44288C10.5768 10.4461 7.44292 12.2742 4.43966 11.4255C1.4364 10.5767 -0.326387 7.50817 0.457073 4.5049Z" fill="white"/>
<path d="M9.00981 20.37C9.00981 20.37 9.33625 20.7617 9.92385 21.4146C10.0544 21.6104 10.2503 21.741 10.4462 21.9369C10.642 22.1327 10.7726 22.3939 10.9685 22.6551C11.1643 22.9162 11.3602 23.1774 11.6213 23.5038C11.6866 23.5691 11.7519 23.6344 11.8172 23.6997C11.8825 23.765 11.9478 23.8302 11.9478 23.9608C12.0784 24.0914 12.1436 24.2873 12.2742 24.4178C12.4701 24.7443 12.7312 25.0707 12.9271 25.4625C13.123 25.8542 13.3841 26.2459 13.58 26.6376C14.037 27.4211 14.4287 28.3351 14.8858 29.3145C15.0816 29.7715 15.2775 30.2938 15.4734 30.8161C15.5386 31.0773 15.6692 31.3384 15.7345 31.5996C15.7998 31.8607 15.8651 32.1219 15.9957 32.383C16.0609 32.6442 16.1262 32.9053 16.2568 33.1665C16.3221 33.4276 16.4527 33.6888 16.4527 33.9499C16.5833 34.5375 16.7138 35.0598 16.8444 35.6474C16.975 36.235 17.0403 36.7573 17.1056 37.3449C17.1709 37.6061 17.1709 37.9325 17.2361 38.1937C17.2361 38.4548 17.3014 38.7813 17.3014 39.0424C17.3014 39.3036 17.3667 39.63 17.3667 39.8912C17.3667 40.1523 17.432 40.4788 17.432 40.7399C17.432 41.3275 17.432 41.8498 17.432 42.4374C17.432 42.6986 17.432 43.025 17.432 43.2862C17.432 43.5473 17.3667 43.8085 17.3667 44.1349C17.3014 44.6572 17.3014 45.2448 17.2361 45.7018C17.1709 46.2242 17.1056 46.7465 17.0403 47.2035C16.975 47.7258 16.8444 48.1828 16.7791 48.6398C16.7138 49.0968 16.5833 49.5539 16.518 49.9456C16.3874 50.3373 16.3221 50.729 16.1915 51.1208C16.061 51.5125 15.9957 51.8389 15.9304 52.1654C15.8651 52.4918 15.7345 52.753 15.6692 53.0141C15.1469 53.9935 14.951 54.5811 14.951 54.5811L14.8205 54.9075C13.3841 58.8901 9.00981 60.914 5.09251 59.543C1.10992 58.1066 -0.914019 53.7323 0.457037 49.815C0.848766 48.6398 1.56694 47.5952 2.41569 46.8117C2.41569 46.8117 2.67684 46.5506 3.19915 46.0936C3.32972 45.963 3.4603 45.8324 3.59087 45.7018C3.72145 45.5713 3.91732 45.3754 4.0479 45.1795C4.24376 44.9837 4.37433 44.7878 4.5702 44.5919C4.76606 44.3961 4.89664 44.1349 5.09251 43.9391C5.28837 43.6779 5.48424 43.482 5.6801 43.1556C5.87597 42.8944 6.07183 42.568 6.2677 42.3069C6.46356 42.0457 6.65943 41.7193 6.85529 41.3928C6.92058 41.1969 7.05116 41.0664 7.18173 40.8705C7.31231 40.6746 7.3776 40.5441 7.44289 40.3482C7.63875 39.9565 7.83462 39.63 7.9652 39.2383C8.09577 39.0424 8.16106 38.8466 8.22635 38.6507C8.29163 38.4548 8.35692 38.259 8.4875 38.0631C8.55279 37.8672 8.68337 37.6714 8.74865 37.4755C8.81394 37.2796 8.87923 37.0838 8.94452 36.8226C9.0751 36.4309 9.20567 35.9739 9.33625 35.5169C9.46683 35.0598 9.53212 34.6681 9.66269 34.2111C9.72798 34.0152 9.72798 33.7541 9.79327 33.5582C9.85856 33.3623 9.85856 33.1012 9.92385 32.9053C9.98914 32.7095 9.98913 32.4483 10.0544 32.2524C10.0544 32.0566 10.1197 31.7954 10.1197 31.5996C10.185 31.1425 10.185 30.6855 10.2503 30.2938C10.2503 29.445 10.3156 28.531 10.2503 27.7475C10.2503 27.3558 10.185 26.8988 10.185 26.5071C10.1197 26.1153 10.1197 25.7236 10.0544 25.3972C10.0544 25.2013 9.98913 25.0054 9.98913 24.8749C9.98913 24.8096 9.98914 24.679 9.92385 24.6137C9.92385 24.5484 9.92384 24.4178 9.85855 24.3526C9.79327 24.0261 9.72798 23.6997 9.66269 23.4385C9.5974 23.1121 9.53211 22.8509 9.46683 22.5898C9.40154 22.3286 9.33625 22.0675 9.27096 21.8716C9.14039 20.8923 9.00981 20.37 9.00981 20.37Z" fill="white"/>
<path d="M20.9576 20.9576L43.6127 33.2318C47.3341 35.2557 48.7704 39.8912 46.7465 43.6779C44.7226 47.4646 40.0871 48.8357 36.3004 46.8117C34.9293 46.0936 33.8847 44.9837 33.1665 43.6779L20.9576 20.9576Z" fill="white"/>
<path d="M20.37 9.00978C20.37 9.00978 20.8923 9.14035 21.7411 9.40151C21.9369 9.4668 22.1981 9.53209 22.4592 9.59737C22.7204 9.66266 22.9815 9.72795 23.308 9.79324C23.6344 9.85852 23.8956 9.92382 24.222 9.9891C24.2873 9.9891 24.4179 9.9891 24.4832 10.0544C24.5484 10.0544 24.679 10.0544 24.7443 10.1197C24.9402 10.1197 25.0708 10.185 25.2666 10.185C25.6584 10.2503 25.9848 10.2503 26.3765 10.3155C26.7683 10.3155 27.16 10.3808 27.617 10.3808C28.4658 10.4461 29.3145 10.3808 30.1632 10.3808C30.6203 10.3808 31.0773 10.3155 31.469 10.2503C31.6649 10.2503 31.926 10.185 32.1219 10.185C32.3178 10.1197 32.5789 10.1197 32.7748 10.0544C32.9706 9.9891 33.2318 9.9891 33.4277 9.92382C33.6235 9.85853 33.8847 9.85852 34.0805 9.79324C34.5376 9.66266 34.9293 9.59737 35.3863 9.46679C35.8433 9.33622 36.2351 9.20564 36.6921 9.07507C36.8879 9.00978 37.0838 8.94449 37.345 8.8792C37.5408 8.81391 37.7367 8.68334 37.9326 8.61805C38.1284 8.55276 38.3243 8.48747 38.5202 8.35689C38.716 8.29161 38.9119 8.22632 39.1078 8.09574C39.4995 7.89988 39.8259 7.70401 40.2177 7.57343C40.4135 7.50814 40.5441 7.37757 40.74 7.31228C40.9358 7.18171 41.0664 7.11642 41.2623 6.98584C41.5887 6.78998 41.9152 6.59411 42.1763 6.39824C42.4375 6.20238 42.7639 6.00651 43.0251 5.81065C43.2862 5.61478 43.5474 5.41892 43.8085 5.22305C44.0697 5.02719 44.2655 4.83132 44.4614 4.70075C44.6573 4.50488 44.8531 4.30902 45.049 4.17844C45.2449 3.98257 45.3754 3.852 45.5713 3.72142C45.7019 3.59085 45.8325 3.39498 45.963 3.32969C46.42 2.80738 46.6812 2.54623 46.6812 2.54623C49.5539 -0.522324 54.3852 -0.718187 57.4538 2.1545C60.5223 5.02719 60.7182 9.85853 57.8455 12.9271C56.9968 13.8411 55.9521 14.494 54.8422 14.8857L54.5811 14.951C54.5811 14.951 53.9935 15.1469 52.9489 15.5386C52.6877 15.6039 52.4266 15.7345 52.1001 15.7998C51.7737 15.8651 51.4473 15.9956 51.0555 16.0609C50.6638 16.1915 50.2721 16.2568 49.8803 16.3874C49.4886 16.4526 49.0316 16.5832 48.5746 16.6485C48.1175 16.7138 47.6605 16.8444 47.1382 16.9097C46.6812 16.975 46.1589 17.0402 45.6366 17.1055C45.1143 17.1708 44.592 17.2361 44.0697 17.2361C43.8085 17.2361 43.5474 17.3014 43.2209 17.3014C42.9598 17.3014 42.6986 17.3667 42.3722 17.3014C41.7846 17.3014 41.2623 17.3014 40.6747 17.3014C40.4135 17.3014 40.0871 17.3014 39.8259 17.2361C39.5648 17.2361 39.2383 17.1708 38.9772 17.1708C38.716 17.1708 38.3896 17.1055 38.1284 17.1055C37.8673 17.0402 37.5408 17.0402 37.2797 16.975C36.6921 16.9097 36.1698 16.8444 35.5822 16.7138C34.9946 16.5832 34.4723 16.4526 33.8847 16.3221C33.6235 16.2568 33.3624 16.1915 33.1012 16.1262C32.8401 16.0609 32.5789 15.9956 32.3178 15.8651C32.0566 15.7998 31.7955 15.7345 31.5343 15.6039C31.2732 15.5386 31.012 15.408 30.7508 15.3427C30.2285 15.1469 29.7715 14.951 29.2492 14.7551C28.3352 14.2981 27.4211 13.9064 26.5724 13.4494C26.1807 13.2535 25.7889 12.9924 25.3972 12.7965C25.0055 12.5353 24.679 12.3395 24.3526 12.1436C24.1567 12.013 24.0261 11.9478 23.8956 11.8172C23.8303 11.7519 23.765 11.6866 23.6344 11.6866C23.5691 11.6213 23.5038 11.556 23.4385 11.4907C23.1774 11.2949 22.851 11.0337 22.5898 10.8378C22.3286 10.642 22.1328 10.4461 21.8716 10.3155C21.6758 10.1197 21.4799 9.9891 21.3493 9.79324C20.7617 9.33622 20.37 9.00978 20.37 9.00978Z" fill="white"/>
</svg>
